<?xml version="1.0" encoding="UTF-8"?>
<svg version="1.1" xmlns="http://www.w3.org/2000/svg" width="512" height="512">
<path d="M0 0 C1.8426948 -0.00599407 3.6853871 -0.01280162 5.52807617 -0.02035522 C10.50789413 -0.03793753 15.48764324 -0.04270744 20.46748924 -0.0439868 C23.58824238 -0.04541389 26.70897833 -0.04969411 29.82972717 -0.05498123 C40.74456888 -0.07345905 51.65936192 -0.08165507 62.57421875 -0.08007812 C72.70283138 -0.07887882 82.8312302 -0.09994556 92.9597888 -0.13156545 C101.69145556 -0.15784007 110.42305301 -0.16844069 119.15475893 -0.16716731 C124.35373244 -0.16666075 129.55251592 -0.17217184 134.75144958 -0.19352341 C139.65016259 -0.21309417 144.54850804 -0.21290352 149.44723511 -0.19849014 C151.22920783 -0.19642375 153.01120472 -0.20097067 154.7931366 -0.21321106 C170.39477347 -0.31330334 186.05881441 1.47415623 200.42382812 7.97802734 C201.20387207 8.32051514 201.98391602 8.66300293 202.78759766 9.01586914 C230.64222007 21.63580004 251.73474215 44.64575645 262.80224609 73.03417969 C264.93598911 78.98470865 266.37124538 85.09711975 267.61132812 91.29052734 C267.78693771 92.14275879 267.9625473 92.99499023 268.14347839 93.87304688 C268.7635703 98.40260376 268.77528704 102.8565191 268.78833008 107.42333984 C268.79490128 108.42894958 268.80147247 109.43455933 268.8082428 110.47064209 C268.8278931 113.78560468 268.83961654 117.10052226 268.84960938 120.41552734 C268.8536849 121.54992249 268.85776043 122.68431763 268.86195946 123.85308838 C268.88277937 129.85111303 268.89710183 135.84911505 268.90649414 141.84716797 C268.9175833 148.04122757 268.95202398 154.23493039 268.99166584 160.42886353 C269.01779094 165.19523797 269.02618207 169.96152656 269.02977562 174.72796631 C269.03464783 177.01172307 269.04627976 179.29547584 269.06481361 181.5791626 C269.08912931 184.77230381 269.0882542 187.96450963 269.08129883 191.15771484 C269.10051392 192.56993317 269.10051392 192.56993317 269.12011719 194.01068115 C269.0755761 199.6211137 268.36938306 202.8464421 264.61132812 207.29052734 C260.7920264 210.91886398 257.72853806 211.60053193 252.61132812 211.79052734 C247.49411819 211.60053193 244.43062985 210.91886398 240.61132812 207.29052734 C236.5693066 202.31989721 236.03315855 198.84928147 236.09716797 192.70922852 C236.08648033 191.44677307 236.08648033 191.44677307 236.07557678 190.15881348 C236.05632515 187.38346736 236.06457642 184.60888677 236.07226562 181.83349609 C236.06234744 179.88738404 236.05040195 177.94128137 236.03652954 175.99519348 C236.00416411 170.86756419 235.99377893 165.74014811 235.98968506 160.61242676 C235.98093903 152.44618093 235.94486756 144.28011092 235.89751053 136.11400795 C235.88510842 133.28664432 235.88566878 130.45951064 235.88778687 127.63212585 C235.8287305 100.53191035 231.49443497 75.87913909 212.05566406 55.71582031 C192.61119447 36.52771796 167.83445647 33.13524567 141.74536133 33.14526367 C140.17365948 33.14226532 138.60195836 33.13886125 137.03025818 33.13508606 C132.79029708 33.12631002 128.5503562 33.12391064 124.3103869 33.12327027 C121.65265907 33.12255605 118.99493627 33.12041472 116.3372097 33.11777306 C107.04031426 33.10854033 97.74343308 33.10443551 88.4465332 33.10522461 C79.8209505 33.10582463 71.19543048 33.09528233 62.56986362 33.07948095 C55.13080916 33.06634549 47.69177504 33.06104323 40.25270909 33.06168002 C35.82462712 33.06193327 31.39660093 33.05917853 26.96853065 33.04850197 C22.79793839 33.03871938 18.62745407 33.03881029 14.45685768 33.0460186 C12.93970072 33.047052 11.42253667 33.04477717 9.90539169 33.03865814 C-16.42599408 32.93946708 -40.51344365 38.09516933 -59.96337891 56.84619141 C-77.93695824 75.05991106 -82.56264332 98.65314054 -82.52238464 123.3379364 C-82.52578298 124.90340823 -82.52578298 124.90340823 -82.52924997 126.50050575 C-82.53552749 129.96136763 -82.53476466 133.42218973 -82.53393555 136.88305664 C-82.53693094 139.37937978 -82.54033435 141.87570246 -82.54411316 144.37202454 C-82.55200584 150.42805047 -82.55516613 156.48406105 -82.55572554 162.5400907 C-82.55620265 167.46862624 -82.55826711 172.3971586 -82.56142616 177.32569313 C-82.57022148 191.33508797 -82.57484729 205.34447518 -82.57409569 219.3538728 C-82.57403575 220.48400239 -82.57403575 220.48400239 -82.57397461 221.63696289 C-82.57391329 222.76849102 -82.57391329 222.76849102 -82.57385073 223.9228783 C-82.57344457 236.13884559 -82.58300954 248.354782 -82.59711298 260.57074036 C-82.61151918 273.14937258 -82.61838083 285.72798977 -82.6175192 298.30663043 C-82.6171887 305.354348 -82.61987108 312.40203319 -82.63069725 319.44974327 C-82.64082193 326.08266103 -82.64042379 332.7155225 -82.63318062 339.3484478 C-82.63214088 341.77144216 -82.634461 344.19444087 -82.64054108 346.61742783 C-82.70928988 375.93236408 -80.06705961 402.8397186 -58.83300781 424.86523438 C-39.23576508 444.20409561 -14.28528351 447.40368393 11.93166351 447.45919228 C14.64814112 447.46644867 17.36444739 447.4821767 20.08087158 447.50053406 C27.79591701 447.55261139 35.51085628 447.60102561 43.22607422 447.61645508 C47.96572786 447.62654917 52.70492972 447.65589017 57.4444046 447.69777489 C59.2416263 447.71004889 61.03891179 447.71521275 62.83617401 447.71297646 C65.34863031 447.71061672 67.85978977 447.73283289 70.37207031 447.76049805 C71.10573318 447.75389664 71.83939606 447.74729523 72.59529114 447.74049377 C78.09801989 447.83962112 81.16349284 449.28473992 85.61132812 452.29052734 C88.93470923 456.2552627 90.30334617 461.14390911 89.99023438 466.27490234 C88.97081337 471.69780169 87.17135203 475.21017185 82.60224915 478.37438965 C78.17406516 480.82609297 74.17166843 480.85528514 69.19799805 480.80810547 C67.82069016 480.81861938 67.82069016 480.81861938 66.41555786 480.8293457 C63.39065947 480.84689425 60.36670428 480.83530313 57.34179688 480.82177734 C55.22015709 480.82447569 53.09851851 480.82836095 50.97688293 480.83337402 C46.52751912 480.83926701 42.07847676 480.83072176 37.62915039 480.81201172 C31.97540071 480.7893757 26.32241714 480.80224874 20.6686964 480.82630157 C16.28180896 480.84089633 11.89509683 480.83608899 7.50820351 480.82579041 C5.42697366 480.82315268 3.34572702 480.82628669 1.26451683 480.83570862 C-27.7222421 480.93803161 -54.17812794 473.55439878 -76.38867188 454.29052734 C-77.19691406 453.62666016 -78.00515625 452.96279297 -78.83789062 452.27880859 C-99.25015004 434.94280805 -111.76867084 409.65582159 -115.38867188 383.29052734 C-115.65005458 379.27001639 -115.66778086 375.26596655 -115.65609741 371.23791504 C-115.66062853 370.07402614 -115.66515964 368.91013724 -115.66982806 367.71097898 C-115.68022762 364.51161956 -115.68181009 361.3124031 -115.67943931 358.11303234 C-115.67902845 354.64996452 -115.6900959 351.18692929 -115.69955444 347.72387695 C-115.71610918 340.94981623 -115.72166153 334.17579032 -115.7227792 327.40171105 C-115.72373255 321.88868758 -115.72785711 316.3756755 -115.73418045 310.86265564 C-115.75177977 295.19735396 -115.76102167 279.53207958 -115.7595195 263.86676794 C-115.75939963 262.60216361 -115.75939963 262.60216361 -115.75927734 261.31201172 C-115.75919558 260.46790031 -115.75911382 259.6237889 -115.75902958 258.75409836 C-115.75821763 245.09088249 -115.77733591 231.42777712 -115.80555408 217.76459318 C-115.83436724 203.70114104 -115.84808967 189.63774261 -115.84636652 175.57426023 C-115.8457054 167.69253081 -115.85107463 159.81091713 -115.87272263 151.92921448 C-115.8910461 145.21537439 -115.89519132 138.50170248 -115.88170378 131.78784806 C-115.87522895 128.37062772 -115.87708145 124.95398867 -115.89241028 121.53675842 C-115.9691218 103.23834416 -115.37959361 85.4372554 -107.70117188 68.47802734 C-107.18744019 67.30796143 -107.18744019 67.30796143 -106.66333008 66.11425781 C-94.36787715 38.97582089 -72.04813067 17.74131591 -44.28466797 6.99707031 C-29.48015627 1.48016884 -15.66693625 -0.01021893 0 0 Z " fill="#000000" transform="translate(131.388671875,-0.29052734375)"/>
<path d="M0 0 C0.75078827 0.00182281 1.50157654 0.00364563 2.27511597 0.00552368 C13.22478781 0.05030076 23.61132095 0.50682038 34.25 3.3125 C35.57417385 3.62128635 36.89839408 3.92987388 38.22265625 4.23828125 C63.62451667 10.56541842 85.92476835 24.94324754 104.25 43.3125 C105.53777344 44.58287109 105.53777344 44.58287109 106.8515625 45.87890625 C132.20382996 72.23721607 144.74470208 107.92209296 144.5625 144.0625 C144.55976578 145.1886824 144.55976578 145.1886824 144.55697632 146.33761597 C144.51219924 157.28728781 144.05567962 167.67382095 141.25 178.3125 C140.94121365 179.63667385 140.63262612 180.96089408 140.32421875 182.28515625 C133.99708158 207.68701667 119.61925246 229.98726835 101.25 248.3125 C100.40308594 249.17101562 99.55617188 250.02953125 98.68359375 250.9140625 C72.49717683 276.10099786 36.74752385 288.53425543 0.875 288.5625 C0.10955872 288.56317474 -0.65588257 288.56384949 -1.44451904 288.56454468 C-12.49482033 288.54903477 -23.02474562 288.22911847 -33.75 285.3125 C-34.4207959 285.13025879 -35.0915918 284.94801758 -35.78271484 284.76025391 C-62.09376523 277.45128957 -84.43226228 264.46353969 -103.75 245.3125 C-105.04357422 244.03826172 -105.04357422 244.03826172 -106.36328125 242.73828125 C-131.69592534 216.35516069 -144.2447646 180.71530765 -144.0625 144.5625 C-144.06067719 143.81171173 -144.05885437 143.06092346 -144.05697632 142.28738403 C-144.01219924 131.33771219 -143.55567962 120.95117905 -140.75 110.3125 C-140.44121365 108.98832615 -140.13262612 107.66410592 -139.82421875 106.33984375 C-133.49708158 80.93798333 -119.11925246 58.63773165 -100.75 40.3125 C-99.90308594 39.45398438 -99.05617187 38.59546875 -98.18359375 37.7109375 C-71.82528393 12.35867004 -36.14040704 -0.18220208 0 0 Z M-81.75 68.3125 C-105.47119847 94.13890784 -112.17018749 124.12110433 -110.75 158.3125 C-110.30461628 163.46679524 -109.20962143 168.35096426 -107.75 173.3125 C-107.4096875 174.53324219 -107.069375 175.75398437 -106.71875 177.01171875 C-98.03354453 205.56139755 -77.79461289 229.0506683 -51.75 243.3125 C-25.68303147 257.01445877 4.4337461 259.73983011 32.66259766 251.54125977 C61.59679297 242.45414404 84.98486505 222.39104101 99.46875 195.88671875 C111.67128607 171.40136676 116.07825545 141.92225543 108.25 115.3125 C107.9096875 114.09175781 107.569375 112.87101562 107.21875 111.61328125 C98.53354453 83.06360245 78.29461289 59.5743317 52.25 45.3125 C6.65937974 21.34804099 -46.28709426 32.44603345 -81.75 68.3125 Z " fill="#000000" transform="translate(351.75,223.6875)"/>
<path d="M0 0 C0.768601 -0.00623996 1.537202 -0.01247993 2.32909393 -0.01890898 C4.89484172 -0.03481581 7.45963642 -0.02224428 10.02539062 -0.00964355 C11.86873935 -0.01506571 13.71208373 -0.0221889 15.55541992 -0.03088379 C20.55541624 -0.04910888 25.55508218 -0.04205293 30.55508423 -0.02936745 C35.789336 -0.0192356 41.02355961 -0.02863364 46.2578125 -0.03491211 C55.04757767 -0.04218796 63.83720837 -0.0326024 72.62695312 -0.0135498 C82.78698248 0.00821878 92.94669076 0.00116737 103.10671234 -0.02085543 C111.8321482 -0.03901115 120.55748745 -0.04156689 129.2829361 -0.03110075 C134.49328372 -0.02486679 139.70348045 -0.02402758 144.91381836 -0.0372467 C149.81245951 -0.04880703 154.71068696 -0.04077601 159.60928345 -0.01766968 C161.40637526 -0.01238358 163.20350192 -0.01389467 165.00057983 -0.02272034 C167.45528259 -0.03366361 169.90866261 -0.01992806 172.36328125 0 C173.07320976 -0.00892289 173.78313828 -0.01784577 174.51457977 -0.02703905 C179.51471523 0.05161339 182.30858222 1.41433383 186.18164062 4.50793457 C189.80997726 8.32723629 190.49164521 11.39072463 190.68164062 16.50793457 C190.49164521 21.62514451 189.80997726 24.68863285 186.18164062 28.50793457 C181.59872912 32.16852961 178.09590311 33.08792081 172.36328125 33.01586914 C171.59468025 33.0221091 170.82607925 33.02834907 170.03418732 33.03477812 C167.46843953 33.05068495 164.90364483 33.03811342 162.33789062 33.0255127 C160.4945419 33.03093485 158.65119752 33.03805804 156.80786133 33.04675293 C151.80786501 33.06497802 146.80819907 33.05792207 141.80819702 33.04523659 C136.57394525 33.03510474 131.33972164 33.04450278 126.10546875 33.05078125 C117.31570358 33.0580571 108.52607288 33.04847154 99.73632812 33.02941895 C89.57629877 33.00765036 79.41659049 33.01470177 69.25656891 33.03672457 C60.53113305 33.05488029 51.8057938 33.05743603 43.08034515 33.04696989 C37.86999753 33.04073593 32.6598008 33.03989672 27.44946289 33.05311584 C22.55082174 33.06467617 17.65259429 33.05664515 12.7539978 33.03353882 C10.95690599 33.02825272 9.15977933 33.02976381 7.36270142 33.03858948 C4.90799866 33.04953275 2.45461864 33.0357972 0 33.01586914 C-0.70992851 33.02479203 -1.41985703 33.03371491 -2.15129852 33.04290819 C-7.15143398 32.96425575 -9.94530097 31.60153531 -13.81835938 28.50793457 C-17.44669601 24.68863285 -18.12836396 21.62514451 -18.31835938 16.50793457 C-18.12836396 11.39072463 -17.44669601 8.32723629 -13.81835938 4.50793457 C-9.23544787 0.84733953 -5.73262186 -0.07205167 0 0 Z " fill="#000000" transform="translate(121.818359375,159.4920654296875)"/>
<path d="M0 0 C4.97447267 2.3095766 7.31899945 5.280301 10 10 C10.48101807 13.3789978 10.48101807 13.3789978 10.45410156 17.10693359 C10.45468567 17.79055969 10.45526978 18.47418579 10.45587158 19.17852783 C10.45310371 21.41902975 10.42207681 23.65817051 10.390625 25.8984375 C10.38315791 27.45927199 10.37746719 29.02011589 10.37347412 30.58096313 C10.35825441 34.67468478 10.31900507 38.76783222 10.2746582 42.86132812 C10.23362584 47.04419183 10.21544617 51.22714898 10.1953125 55.41015625 C10.15250648 63.60703335 10.08430054 71.8034451 10 80 C10.56296783 79.99111755 11.12593567 79.98223511 11.70596313 79.9730835 C17.57844871 79.8844193 23.45074336 79.8241869 29.32373047 79.78027344 C31.51391324 79.76018893 33.70404259 79.73291583 35.89404297 79.69824219 C39.04668376 79.64958591 42.19861404 79.62699922 45.3515625 79.609375 C46.32678864 79.58872986 47.30201477 79.56808472 48.30679321 79.54681396 C54.07535005 79.54492063 57.44847327 80.09204214 62 84 C65.62833663 87.81930172 66.31000458 90.88279006 66.5 96 C66.31000458 101.11720994 65.62833663 104.18069828 62 108 C57.59154508 111.44020036 54.74703537 112.50249877 49.171875 112.51757812 C48.5173938 112.5245874 47.8629126 112.53159668 47.18859863 112.53881836 C45.04195744 112.55631165 42.89665276 112.5448084 40.75 112.53125 C39.24836984 112.53394745 37.74674139 112.53783198 36.24511719 112.54284668 C33.10464781 112.54872992 29.96463488 112.54021733 26.82421875 112.52148438 C22.80918035 112.49869478 18.7952116 112.51182428 14.7802124 112.53577423 C11.68139665 112.55026445 8.58283233 112.54561163 5.48400879 112.53526306 C4.0041084 112.53260464 2.52418479 112.5358343 1.04431152 112.54518127 C-1.02836107 112.55540112 -3.09932864 112.53977441 -5.171875 112.51757812 C-6.3484668 112.51439575 -7.52505859 112.51121338 -8.73730469 112.50793457 C-14.00492956 111.68787369 -16.89362383 109.26831721 -20.34265137 105.31445312 C-22.4860633 101.02794501 -22.56371417 97.69390745 -22.51757812 92.96875 C-22.5245874 92.08018311 -22.53159668 91.19161621 -22.53881836 90.27612305 C-22.55636698 87.3504271 -22.54478669 84.42570511 -22.53125 81.5 C-22.53394581 79.46028458 -22.53782898 77.42057041 -22.54284668 75.38085938 C-22.54873749 71.11055235 -22.54019207 66.8405805 -22.52148438 62.5703125 C-22.49869526 57.10255249 -22.51182055 51.63557789 -22.53577423 46.16784668 C-22.55024337 41.95729681 -22.54562105 37.74693248 -22.53526306 33.53637695 C-22.53259887 31.52058824 -22.53585469 29.50478257 -22.54518127 27.48901367 C-22.55536511 24.66930663 -22.53982006 21.85086318 -22.51757812 19.03125 C-22.52567505 18.20197998 -22.53377197 17.37270996 -22.54211426 16.51831055 C-22.46471664 11.20938694 -21.47949599 8.23323013 -18 4 C-12.72867143 -1.00776214 -6.89190982 -0.92775709 0 0 Z " fill="#000000" transform="translate(358,272)"/>
<path d="M0 0 C1.19092758 -0.00700928 2.38185516 -0.01401855 3.60887146 -0.02124023 C6.86316892 -0.03579681 10.11681222 -0.03243044 13.37109947 -0.01972389 C16.78358667 -0.00956628 20.19603151 -0.01899721 23.60852051 -0.02526855 C29.33821407 -0.03253698 35.06770111 -0.0229786 40.79736328 -0.00390625 C47.41289906 0.0178612 54.02794168 0.01080924 60.64346552 -0.01121187 C66.33284796 -0.02938902 72.02208232 -0.03191297 77.71148443 -0.0214572 C81.10539167 -0.01523487 84.49906742 -0.01435151 87.89295959 -0.02760315 C91.67767676 -0.03776191 95.46144709 -0.02227477 99.24609375 0 C100.36523666 -0.00809692 101.48437958 -0.01619385 102.63743591 -0.02453613 C110.44567671 0.06059672 113.70203543 1.37394599 119.43554688 6.64257812 C121.89175503 10.82722905 122.30384069 14.70394278 122.12304688 19.51757812 C120.47699875 25.42398611 117.92707642 28.04232271 113.12304688 31.51757812 C110.65390387 32.75214963 109.01578027 32.65159441 106.25335693 32.66474915 C105.22433762 32.67190445 104.1953183 32.67905975 103.13511658 32.68643188 C102.00159256 32.68912079 100.86806854 32.69180969 99.70019531 32.69458008 C98.50985184 32.70115128 97.31950836 32.70772247 96.09309387 32.7144928 C92.1395431 32.73426238 88.18600558 32.7458969 84.23242188 32.75585938 C82.8711266 32.75990695 81.50983154 32.76402387 80.14853668 32.76820946 C73.75198195 32.78726381 67.35543877 32.80149335 60.95886111 32.80982143 C53.57777963 32.81959006 46.19699835 32.8458984 38.81602263 32.88632232 C33.10977607 32.91650018 27.40361546 32.93129194 21.69729066 32.93460244 C18.28985674 32.93695142 14.88274343 32.94589094 11.4753952 32.97106361 C7.671178 32.99535206 3.8677472 32.99450824 0.06347656 32.98754883 C-1.06195053 33.00035889 -2.18737762 33.01316895 -3.34690857 33.02636719 C-9.522367 32.98514705 -13.18962337 32.6677473 -17.87695312 28.51757812 C-21.50528976 24.6982764 -22.18695771 21.63478806 -22.37695312 16.51757812 C-22.18695771 11.40036819 -21.50528976 8.33687985 -17.87695312 4.51757812 C-12.33730534 -0.37229716 -7.16936444 -0.05186987 0 0 Z " fill="#000000" transform="translate(125.876953125,223.482421875)"/>
<path d="M0 0 C0.77152405 -0.00700928 1.5430481 -0.01401855 2.33795166 -0.02124023 C4.87411079 -0.03876533 7.40914312 -0.0272177 9.9453125 -0.01367188 C11.71598524 -0.01636838 13.48665653 -0.02025213 15.25732422 -0.02526855 C18.96270896 -0.03115615 22.66770718 -0.02262463 26.37304688 -0.00390625 C31.11443856 0.01888303 35.85492448 0.00575596 40.59628296 -0.01819611 C44.25096417 -0.03267417 47.90543186 -0.02803893 51.56011963 -0.01768494 C53.30796415 -0.01502319 55.05582828 -0.01826794 56.8036499 -0.02760315 C59.249828 -0.03780216 61.69455458 -0.02222249 64.140625 0 C64.85768616 -0.00809692 65.57474731 -0.01619385 66.3135376 -0.02453613 C71.35152217 0.0599356 74.16906794 1.39417696 78.0703125 4.51757812 C81.69864913 8.33687985 82.38031708 11.40036819 82.5703125 16.51757812 C82.38031708 21.63478806 81.69864913 24.6982764 78.0703125 28.51757812 C73.46068558 32.20812197 69.90899592 33.10029164 64.140625 33.03515625 C63.36910095 33.04216553 62.5975769 33.0491748 61.80267334 33.05639648 C59.26651421 33.07392158 56.73148188 33.06237395 54.1953125 33.04882812 C52.42463976 33.05152463 50.65396847 33.05540838 48.88330078 33.0604248 C45.17791604 33.0663124 41.47291782 33.05778088 37.76757812 33.0390625 C33.02618644 33.01627322 28.28570052 33.02940029 23.54434204 33.05335236 C19.88966083 33.06783042 16.23519314 33.06319518 12.58050537 33.05284119 C10.83266085 33.05017944 9.08479672 33.05342419 7.3369751 33.0627594 C4.890797 33.07295841 2.44607042 33.05737874 0 33.03515625 C-0.71706116 33.04325317 -1.43412231 33.0513501 -2.1729126 33.05969238 C-7.21089717 32.97522065 -10.02844294 31.64097929 -13.9296875 28.51757812 C-17.55802413 24.6982764 -18.23969208 21.63478806 -18.4296875 16.51757812 C-18.23969208 11.40036819 -17.55802413 8.33687985 -13.9296875 4.51757812 C-9.32006058 0.82703428 -5.76837092 -0.06513539 0 0 Z " fill="#000000" transform="translate(121.9296875,287.482421875)"/>
</svg>
