<svg xmlns="http://www.w3.org/2000/svg" data-v-423bf9ae="" viewBox="0 0 417.99998074990765 174" class="iconAbove"><!----><!----><!----><g data-v-423bf9ae="" id="ec6e637b-561c-4ed9-85fc-539e51aa464d" fill="#4a90e2" transform="matrix(5.555555457440915,0,0,5.555555457440915,-5.055561066900424,105.94199502173765)"><path d="M3.01 8.18L2.45 8.18L2.45 11.72Q2.45 11.90 2.27 11.90L2.27 11.90L1.08 11.90Q0.91 11.90 0.91 11.72L0.91 11.72L0.91 2.35Q0.91 2.28 0.96 2.23Q1.01 2.18 1.08 2.18L1.08 2.18L3.14 2.18Q4.69 2.18 5.59 2.94Q6.50 3.70 6.50 5.15L6.50 5.15Q6.50 5.92 6.24 6.45Q5.98 6.97 5.51 7.37Q5.04 7.77 4.40 7.97Q3.77 8.18 3.01 8.18L3.01 8.18ZM3.36 3.65L2.45 3.65L2.45 6.72L3.05 6.72Q3.93 6.72 4.43 6.31Q4.93 5.91 4.93 5.14L4.93 5.14Q4.93 4.34 4.49 4.00Q4.06 3.65 3.36 3.65L3.36 3.65ZM13.12 11.90L12.00 11.90Q11.90 11.90 11.88 11.89Q11.86 11.87 11.86 11.79L11.86 11.79L11.86 11.14Q11.52 11.63 11.02 11.88Q10.51 12.12 10.00 12.12L10.00 12.12Q9.59 12.12 9.13 11.98Q8.68 11.83 8.36 11.54Q8.04 11.26 7.85 10.84Q7.66 10.42 7.66 9.86L7.66 9.86Q7.66 9.25 7.90 8.76Q8.15 8.26 8.65 7.92Q9.16 7.59 9.88 7.43Q10.60 7.27 11.72 7.27L11.72 7.27Q11.72 7.01 11.67 6.80Q11.62 6.58 11.49 6.38Q11.37 6.19 11.14 6.06Q10.91 5.92 10.57 5.92L10.57 5.92Q10.12 5.92 9.64 6.09Q9.16 6.26 8.74 6.54L8.74 6.54Q8.53 6.68 8.45 6.66Q8.37 6.65 8.37 6.51L8.37 6.51L8.37 5.42Q8.37 5.39 8.37 5.31Q8.36 5.24 8.41 5.19L8.41 5.19Q8.48 5.12 8.60 5.07L8.60 5.07Q9.02 4.83 9.52 4.68Q10.02 4.52 10.54 4.52L10.54 4.52Q11.89 4.52 12.55 5.20Q13.22 5.88 13.22 7.15L13.22 7.15L13.22 10.23Q13.22 10.61 13.22 11.00Q13.23 11.40 13.27 11.70L13.27 11.70Q13.29 11.90 13.12 11.90L13.12 11.90ZM9.16 9.76L9.16 9.76Q9.16 10.25 9.45 10.49Q9.74 10.74 10.08 10.74L10.08 10.74Q10.82 10.74 11.30 10.16Q11.77 9.58 11.77 8.75L11.77 8.75L11.77 8.60Q10.28 8.60 9.72 8.90Q9.16 9.20 9.16 9.76ZM18.58 11.90L14.80 11.90Q14.73 11.90 14.68 11.85Q14.63 11.80 14.63 11.72L14.63 11.72L14.63 10.63Q14.63 10.56 14.68 10.51Q14.73 10.46 14.80 10.46L14.80 10.46L15.68 10.46L15.68 6.59L15.68 6.10L14.53 6.10Q14.46 6.10 14.41 6.06Q14.36 6.01 14.36 5.92L14.36 5.92L14.36 4.87Q14.36 4.80 14.41 4.75Q14.46 4.70 14.53 4.70L14.53 4.70L16.83 4.70Q16.88 4.70 16.92 4.74Q16.95 4.77 16.95 4.83L16.95 4.83L16.95 6.02Q17.09 5.73 17.25 5.51Q17.42 5.29 17.61 5.12Q17.79 4.94 18.04 4.80Q18.28 4.65 18.76 4.54L18.76 4.54Q19.36 4.44 19.93 4.56Q20.50 4.69 20.87 5.00L20.87 5.00Q20.94 5.07 20.93 5.12Q20.92 5.18 20.90 5.24L20.90 5.24L20.44 6.19Q20.41 6.27 20.35 6.30Q20.29 6.33 20.19 6.27L20.19 6.27Q19.87 6.09 19.47 6.02Q19.08 5.95 18.70 6.02L18.70 6.02Q18.05 6.15 17.67 6.65Q17.29 7.15 17.21 7.67Q17.12 8.19 17.12 8.89L17.12 8.89L17.12 10.46L18.58 10.46Q18.65 10.46 18.70 10.51Q18.75 10.56 18.75 10.63L18.75 10.63L18.75 11.72Q18.75 11.90 18.58 11.90L18.58 11.90ZM27.61 11.90L26.32 11.90Q26.17 11.90 26.10 11.87Q26.04 11.83 25.97 11.72L25.97 11.72L24.14 8.74L23.32 9.67L23.32 11.73Q23.32 11.90 23.14 11.90L23.14 11.90L22.01 11.90Q21.94 11.90 21.89 11.85Q21.84 11.80 21.84 11.73L21.84 11.73L21.84 1.55Q21.84 1.48 21.89 1.44Q21.94 1.39 22.01 1.39L22.01 1.39L23.14 1.39Q23.23 1.39 23.27 1.44Q23.32 1.48 23.32 1.55L23.32 1.55L23.32 7.60L25.65 4.83Q25.76 4.70 25.87 4.70L25.87 4.70L27.31 4.70Q27.58 4.70 27.40 4.90L27.40 4.90L25.10 7.62L27.71 11.72Q27.85 11.90 27.61 11.90L27.61 11.90ZM41.62 11.90L40.52 11.90Q40.43 11.90 40.39 11.87Q40.35 11.83 40.31 11.66L40.31 11.66L39.73 9.24L37.28 9.24L36.71 11.66Q36.68 11.86 36.64 11.88Q36.60 11.90 36.50 11.90L36.50 11.90L35.39 11.90Q35.14 11.90 35.22 11.66L35.22 11.66L37.63 2.34Q37.67 2.23 37.70 2.21Q37.72 2.18 37.86 2.18L37.86 2.18L39.16 2.18Q39.28 2.18 39.31 2.21Q39.34 2.23 39.38 2.34L39.38 2.34L41.79 11.66Q41.86 11.90 41.62 11.90L41.62 11.90ZM38.50 3.89L37.62 7.77L39.38 7.77L38.50 3.89ZM46.58 11.90L42.80 11.90Q42.73 11.90 42.68 11.85Q42.63 11.80 42.63 11.72L42.63 11.72L42.63 10.63Q42.63 10.56 42.68 10.51Q42.73 10.46 42.80 10.46L42.80 10.46L43.68 10.46L43.68 6.59L43.68 6.10L42.53 6.10Q42.46 6.10 42.41 6.06Q42.36 6.01 42.36 5.92L42.36 5.92L42.36 4.87Q42.36 4.80 42.41 4.75Q42.46 4.70 42.53 4.70L42.53 4.70L44.83 4.70Q44.88 4.70 44.92 4.74Q44.95 4.77 44.95 4.83L44.95 4.83L44.95 6.02Q45.09 5.73 45.26 5.51Q45.42 5.29 45.60 5.12Q45.79 4.94 46.04 4.80Q46.28 4.65 46.76 4.54L46.76 4.54Q47.36 4.44 47.93 4.56Q48.50 4.69 48.87 5.00L48.87 5.00Q48.94 5.07 48.93 5.12Q48.92 5.18 48.90 5.24L48.90 5.24L48.44 6.19Q48.41 6.27 48.35 6.30Q48.29 6.33 48.19 6.27L48.19 6.27Q47.87 6.09 47.47 6.02Q47.08 5.95 46.70 6.02L46.70 6.02Q46.05 6.15 45.67 6.65Q45.29 7.15 45.21 7.67Q45.12 8.19 45.12 8.89L45.12 8.89L45.12 10.46L46.58 10.46Q46.65 10.46 46.70 10.51Q46.75 10.56 46.75 10.63L46.75 10.63L46.75 11.72Q46.75 11.90 46.58 11.90L46.58 11.90ZM54.70 10.92L54.70 10.92Q54.29 11.51 53.74 11.81Q53.19 12.11 52.50 12.11L52.50 12.11Q51.80 12.11 51.26 11.82Q50.72 11.52 50.35 11.00Q49.98 10.47 49.80 9.79Q49.62 9.10 49.62 8.32L49.62 8.32Q49.62 7.53 49.80 6.85Q49.98 6.16 50.35 5.64Q50.72 5.12 51.25 4.83Q51.79 4.54 52.50 4.54L52.50 4.54Q53.20 4.54 53.74 4.83Q54.28 5.12 54.65 5.64Q55.02 6.16 55.20 6.85Q55.38 7.53 55.38 8.32L55.38 8.32Q55.38 9.09 55.20 9.76Q55.02 10.43 54.70 10.92ZM52.50 5.91L52.50 5.91Q52.14 5.91 51.88 6.12Q51.63 6.33 51.47 6.67Q51.31 7.01 51.22 7.45Q51.13 7.88 51.13 8.32L51.13 8.32Q51.13 8.76 51.22 9.19Q51.31 9.62 51.47 9.97Q51.63 10.32 51.88 10.53Q52.14 10.74 52.50 10.74L52.50 10.74Q52.85 10.74 53.11 10.53Q53.37 10.32 53.53 9.97Q53.69 9.62 53.78 9.19Q53.87 8.76 53.87 8.32L53.87 8.32Q53.87 7.88 53.78 7.46Q53.69 7.03 53.53 6.69Q53.37 6.34 53.11 6.13Q52.85 5.91 52.50 5.91ZM62.09 11.90L60.96 11.90Q60.90 11.90 60.85 11.87Q60.80 11.83 60.80 11.76L60.80 11.76L60.80 11.19Q60.54 11.65 60.12 11.89Q59.71 12.12 59.16 12.12L59.16 12.12Q58.11 12.12 57.44 11.33Q56.76 10.53 56.76 9.04L56.76 9.04L56.76 4.90Q56.76 4.83 56.80 4.77Q56.85 4.70 56.91 4.70L56.91 4.70L58.10 4.70Q58.16 4.70 58.20 4.77Q58.25 4.84 58.25 4.91L58.25 4.91L58.25 8.82Q58.25 9.87 58.55 10.30Q58.84 10.74 59.33 10.74L59.33 10.74Q59.93 10.74 60.33 10.16Q60.72 9.59 60.72 8.46L60.72 8.46L60.72 4.90Q60.72 4.83 60.77 4.77Q60.82 4.70 60.90 4.70L60.90 4.70L62.06 4.70Q62.12 4.70 62.17 4.78Q62.22 4.86 62.22 4.93L62.22 4.93L62.22 10.09Q62.22 10.53 62.23 10.95Q62.24 11.37 62.24 11.72L62.24 11.72Q62.24 11.90 62.09 11.90L62.09 11.90ZM69.06 11.90L67.91 11.90Q67.84 11.90 67.80 11.84Q67.75 11.77 67.75 11.70L67.75 11.70L67.75 7.80Q67.75 6.79 67.49 6.34Q67.23 5.89 66.71 5.89L66.71 5.89Q66.11 5.89 65.71 6.41Q65.31 6.92 65.31 7.88L65.31 7.88L65.31 11.72Q65.31 11.90 65.14 11.90L65.14 11.90L63.99 11.90Q63.92 11.90 63.88 11.84Q63.83 11.77 63.83 11.70L63.83 11.70L63.83 6.68Q63.83 6.15 63.82 5.66Q63.81 5.17 63.78 4.89L63.78 4.89Q63.76 4.70 63.98 4.70L63.98 4.70L65.07 4.70Q65.23 4.70 65.20 4.82L65.20 4.82L65.18 5.32Q65.42 4.98 65.85 4.75Q66.28 4.51 66.75 4.51L66.75 4.51Q67.76 4.51 68.50 5.26Q69.23 6.01 69.23 7.59L69.23 7.59L69.23 11.72Q69.23 11.90 69.06 11.90L69.06 11.90ZM73.05 12.07L73.05 12.07Q72.41 12.07 71.92 11.80Q71.44 11.52 71.10 11.03Q70.76 10.53 70.57 9.81Q70.39 9.09 70.39 8.27L70.39 8.27Q70.39 7.66 70.58 6.91Q70.77 6.16 71.11 5.63Q71.46 5.10 71.94 4.81Q72.42 4.52 73.05 4.52L73.05 4.52Q73.51 4.52 73.93 4.74Q74.34 4.96 74.65 5.39L74.65 5.39L74.65 1.48Q74.65 1.37 74.68 1.34Q74.70 1.32 74.79 1.32L74.79 1.32L75.99 1.32Q76.15 1.32 76.15 1.48L76.15 1.48L76.15 11.69Q76.15 11.90 75.95 11.90L75.95 11.90L74.83 11.90Q74.65 11.90 74.65 11.69L74.65 11.69L74.65 11.14Q74.41 11.56 73.96 11.82Q73.51 12.07 73.05 12.07ZM73.37 5.95L73.37 5.95Q72.70 5.95 72.34 6.65Q71.97 7.35 71.97 8.27L71.97 8.27Q71.97 9.27 72.35 9.96Q72.73 10.65 73.37 10.65L73.37 10.65Q73.64 10.65 73.89 10.47Q74.14 10.29 74.33 9.95Q74.52 9.62 74.62 9.15Q74.72 8.68 74.72 8.27L74.72 8.27Q74.72 7.28 74.36 6.62Q74.00 5.95 73.37 5.95Z" fill="#4a90e2"/></g><!----><g data-v-423bf9ae="" id="f77b2126-1d60-4c98-af2e-839d82646948" transform="matrix(1.0555426703559028,0,0,1.0555426703559028,156.3885114680536,-2.2765854655816753)" stroke="none" fill="#4a90e2"><path d="M59.352 80.043a90.396 90.396 0 00-2.922 4.7c6.207.835 9.523 2.734 9.852 3.616-.426 1.149-5.906 4.036-16.281 4.032-10.492 0-15.98-2.95-16.297-3.993.242-.863 3.566-2.808 9.867-3.656a82.81 82.81 0 00-2.95-4.695c-6.695 1.254-12.02 3.96-12.022 8.312 0 6.282 11.094 9.141 21.398 9.141 10.305 0 21.398-2.86 21.398-9.14 0-4.356-5.336-7.067-12.047-8.317z" fill="#4a90e2"/><path d="M47.77 2.574C32.399 3.59 18.379 17.508 17.258 32.871c-.79 10.797 3.648 20.582 11.039 27.098 8.781 7.742 16.121 16.973 21.379 27.43l.324.645.168-.332c5.246-10.438 12.375-19.86 21.23-27.477 7-6.02 11.438-14.941 11.438-24.902 0-18.871-15.922-34.023-35.066-32.758zM50 61.262c-14.32 0-25.925-11.609-25.925-25.926 0-14.32 11.605-25.93 25.926-25.93s25.926 11.61 25.926 25.93S64.32 61.262 50 61.262z" fill="#4a90e2"/><path d="M60.102 41.156l-.238-.574-.328-.86c-.004-.007-.004-.015-.008-.023h-1.781c-.036.008-.07.016-.11.016H37.47a.43.43 0 01-.402-.586l1.75-4.61c.363-1.078 1.226-1.785 2.187-1.785h5.645V31.55h-6.133c-1.121 0-2.125.747-2.562 1.899l-.012.027-1.727 3.918a.539.539 0 01-.5.324c-.02 0-.039 0-.054-.003a.315.315 0 01-.258-.208.744.744 0 00-.703-.5h-.895a.899.899 0 000 1.797h1.164c.274 0 .531.168.613.43.051.16.043.332-.015.488l-.328.86-.239.574c-.23.773-.347 2-.351 2.828v7.309c0 .484.39.875.875.875h1.46c.485 0 .876-.391.876-.875v-.723c0-.3.246-.547.547-.547h18.28c.301 0 .548.246.548.547v.723c0 .484.39.875.875.875h1.46c.485 0 .875-.391.875-.875v-7.309c0-.824-.12-2.055-.351-2.828zm-19.551 6.973h-2.203a2.082 2.082 0 01-2.078-2.078v-1.586c0-.285.23-.516.515-.516h1.688a3.13 3.13 0 013.129 3.129c0 .578-.473 1.05-1.051 1.05zm11.398-1.364c0 .75-.566 1.364-1.262 1.364h-6.265c-.696 0-1.262-.61-1.262-1.364v-1.457c0-.75.566-1.363 1.262-1.363h6.265c.696 0 1.262.61 1.262 1.363zm6.887-.714a2.082 2.082 0 01-2.078 2.078h-2.204c-.578 0-1.05-.473-1.05-1.051a3.13 3.13 0 013.129-3.129h1.687c.285 0 .516.23.516.516z" fill="#4a90e2"/><path d="M63.871 21.48H50.769c-.55 0-1 .45-1 1v13.102c0 .55.45 1 1 1h13.102c.55 0 1-.45 1-1V22.48c0-.55-.45-1-1-1zm-6.258 9.215h-2.41v3.652h-1.672v-10.64h4.082c1.926 0 3.492 1.565 3.492 3.491s-1.566 3.492-3.492 3.492z" fill="#4a90e2"/><path d="M57.613 25.383h-2.41v3.64h2.41c1.004 0 1.82-.816 1.82-1.82s-.816-1.82-1.82-1.82z" fill="#4a90e2"/><path d="M64.223 19.258H50.414a2.87 2.87 0 00-2.867 2.867v13.81a2.87 2.87 0 002.867 2.866h13.809a2.87 2.87 0 002.867-2.867V22.125a2.87 2.87 0 00-2.867-2.867zm1.484 16.32a1.84 1.84 0 01-1.84 1.84H50.767a1.843 1.843 0 01-1.84-1.84V22.476c0-1.012.824-1.84 1.84-1.84h13.102c1.011 0 1.84.824 1.84 1.84z" fill="#4a90e2"/></g><!----></svg>