<?xml version="1.0" encoding="UTF-8"?>
<svg version="1.1" xmlns="http://www.w3.org/2000/svg" width="512" height="512">
<path d="M0 0 C2.35016731 2.96325443 2.47157673 6.21763189 2.39453125 9.96484375 C1.68647817 13.61727597 -0.37534632 15.43783808 -3 18 C-6.06525092 19.53262546 -8.69555673 19.62257627 -12 19 C-14.6928027 17.74335874 -17.21348646 16.27773829 -19.78515625 14.7890625 C-29.98557181 9.11252504 -40.47048303 5.01002736 -52 3 C-53.258125 2.773125 -54.51625 2.54625 -55.8125 2.3125 C-80.3892217 -0.10403958 -105.417899 5.51496163 -125.1875 20.8125 C-126.8106873 22.18616822 -128.4148245 23.58263624 -130 25 C-131.24910156 26.10794922 -131.24910156 26.10794922 -132.5234375 27.23828125 C-150.97409177 44.58189627 -160.65816839 70.13932665 -162.1875 95.0546875 C-162.84270976 125.93144733 -146.92332771 150.46505071 -132.03497314 176.20861816 C-130.39290979 179.05078125 -128.75723631 181.89661305 -127.12109375 184.7421875 C-120.54445016 196.17263457 -113.92287828 207.57625398 -107.26904297 218.96191406 C-102.35735768 227.37208831 -97.49059246 235.80774438 -92.62963867 244.24731445 C-87.63860189 252.90709922 -82.61141906 261.54538898 -77.56640625 270.17382812 C-76.50978075 271.98141246 -75.45449864 273.78978308 -74.40087891 275.59912109 C-73.51291295 277.12095051 -72.61995406 278.63988659 -71.72021484 280.15478516 C-69 284.78141426 -69 284.78141426 -69 287 C-68.34 287 -67.68 287 -67 287 C-66.75636719 286.15953125 -66.51273438 285.3190625 -66.26171875 284.453125 C-64.85120699 280.59277703 -62.9402095 277.24181149 -60.8125 273.75 C-59.90628644 272.23643414 -59.00142733 270.72205681 -58.09765625 269.20703125 C-57.60281738 268.37896973 -57.10797852 267.5509082 -56.59814453 266.69775391 C-53.60113346 261.63863807 -50.6808663 256.53511793 -47.75 251.4375 C-42.85903742 242.94315662 -37.94612504 234.46234098 -33 226 C-26.25711118 214.46018223 -19.57537395 202.88564339 -12.90429688 191.30419922 C-10.34532153 186.86404892 -7.78194004 182.42644978 -5.21826172 177.98901367 C-3.33782434 174.73137152 -1.46177614 171.4712293 0.4140625 168.2109375 C2.72151898 164.20364232 5.04965303 160.20976091 7.3984375 156.2265625 C23.09116587 129.48288463 30.44776559 102.47667105 22.52709961 71.74804688 C20.34084236 63.87571021 17.19545635 56.91701973 13.03491211 49.88330078 C10.30628987 45.15958821 9.24800119 41.47909596 9 36 C10.25833075 32.07696884 11.34743146 30.47045639 14.6875 28.0625 C18.68597399 26.77997061 22.0469465 26.41573193 26 28 C41.11302485 41.01464855 47.40458287 67.84299886 49 87 C50.83039 115.8328407 43.69553768 141.62396095 28.8671875 166.24023438 C28.3294873 167.13367554 27.79178711 168.0271167 27.23779297 168.94763184 C26.82932129 169.62491333 26.42084961 170.30219482 26 171 C26.60055206 170.98889694 27.20110413 170.97779388 27.81985474 170.96635437 C34.08157449 170.85556708 40.34301496 170.78025248 46.60546875 170.7253418 C48.9411958 170.70022819 51.27684451 170.66613072 53.61230469 170.62280273 C56.97350414 170.56201508 60.33366285 170.53375788 63.6953125 170.51171875 C64.73615997 170.48591232 65.77700745 170.4601059 66.84939575 170.43351746 C71.52560847 170.43171646 74.34659303 170.64247114 78.50610352 172.91845703 C81.80701095 176.99717007 82.91808617 180.76247469 84.20703125 185.79296875 C84.62467239 187.31167824 84.62467239 187.31167824 85.05075073 188.86106873 C85.99114897 192.29815265 86.9011825 195.74260116 87.8125 199.1875 C88.48640959 201.66972781 89.16267498 204.15131701 89.84106445 206.63232422 C90.96390589 210.7422865 92.08388961 214.85296874 93.19407654 218.96636963 C96.45441697 231.04456503 99.79051239 243.10094381 103.1484375 255.15234375 C103.4148555 256.10862734 103.6812735 257.06491093 103.95576477 258.05017281 C105.04375607 261.95514333 106.1318369 265.86008885 107.22024536 269.76494312 C109.13626293 276.6407168 111.04610348 283.51818401 112.95214844 290.39672852 C113.35048386 291.83416239 113.35048386 291.83416239 113.75686646 293.30063534 C114.2870744 295.21403713 114.81727163 297.12744189 115.34745789 299.04084969 C119.03482363 312.34763949 122.73724643 325.64960946 126.4921875 338.9375 C127.40737779 342.18997731 128.32177136 345.44267714 129.23574829 348.69549561 C130.03287117 351.52001347 130.84075751 354.34129474 131.64916992 357.16259766 C132.11176752 358.80875017 132.57380851 360.45505926 133.03515625 362.1015625 C133.24006683 362.8023291 133.44497742 363.5030957 133.65609741 364.22509766 C135.03210573 369.20460111 136.37424908 375.23576617 133.9765625 380.05859375 C129.1880738 384.94395938 129.1880738 384.94395938 125.24499154 385.12995183 C124.05820046 385.13228248 122.87140938 385.13461312 121.64865494 385.13701439 C120.98630234 385.13966622 120.32394975 385.14231804 119.64152586 385.14505023 C117.40034646 385.15276928 115.15922162 385.15330339 112.91802979 385.15390015 C111.30365701 385.15791305 109.68928524 385.16235098 108.07491469 385.1671797 C103.62160087 385.17917017 99.16829788 385.18479936 94.71497107 385.18936086 C89.91865671 385.19530756 85.12235539 385.20691968 80.3260498 385.21765137 C68.73461979 385.24219617 57.14318545 385.25680525 45.55173743 385.26971143 C42.27951538 385.27342175 39.00729376 385.27739511 35.73507214 385.2814641 C15.42846918 385.30669817 -4.87813442 385.32875802 -25.1847496 385.34119225 C-29.89041903 385.34412209 -34.59608844 385.34708373 -39.30175781 385.35009766 C-41.056182 385.35121673 -41.056182 385.35121673 -42.8460491 385.35235842 C-61.80176996 385.36501755 -80.75739714 385.39824692 -99.71307418 385.43989949 C-119.16068052 385.48228382 -138.60823885 385.5058832 -158.05589128 385.51111281 C-168.98064092 385.51453083 -179.90524415 385.52633202 -190.82994843 385.55921555 C-200.1322036 385.58716908 -209.43428236 385.59823606 -218.73657629 385.58702008 C-223.48469926 385.58182145 -228.23245252 385.58479816 -232.98052216 385.60948563 C-237.32575818 385.63189047 -241.67035704 385.63130702 -246.01560357 385.61228175 C-247.5890001 385.60946938 -249.16243904 385.61514868 -250.7357671 385.63009469 C-263.96977725 385.74814331 -263.96977725 385.74814331 -267.91186905 382.58699989 C-271.27831558 378.41628597 -271.36580381 375.22541902 -271 370 C-270.4336646 367.27505107 -269.81427777 364.69155969 -269.04736328 362.02807617 C-268.73495949 360.89633469 -268.73495949 360.89633469 -268.41624451 359.74172974 C-267.72740787 357.25595952 -267.0239976 354.77457255 -266.3203125 352.29296875 C-265.82773397 350.52761146 -265.33604251 348.76200645 -264.84518433 346.99617004 C-263.54629313 342.33321674 -262.23489203 337.67387042 -260.92095947 333.01513672 C-259.62430307 328.40878002 -258.34012571 323.79895023 -257.0546875 319.18945312 C-254.79094526 311.07802422 -252.50798831 302.97216649 -250.21550369 294.86881828 C-248.74157572 289.65149472 -247.28662241 284.42936941 -245.8488102 279.20197964 C-244.94960231 275.93804664 -244.04118937 272.6767182 -243.13113022 269.41579628 C-242.71025551 267.89911832 -242.2935346 266.38128062 -241.88129044 264.86223412 C-241.31578401 262.78033741 -240.73558213 260.70306999 -240.15185547 258.6262207 C-239.83102997 257.46097366 -239.51020447 256.29572662 -239.17965698 255.09516907 C-237.68568429 251.17530241 -235.84076363 247.92038181 -232 246 C-227.44585452 245.36241963 -223.33799714 245.22397294 -219.5 248 C-216.4598977 251.64812276 -215.88736649 254.37911154 -216 259 C-216.77189009 263.37453271 -217.97521022 267.60000215 -219.19921875 271.8671875 C-219.54950638 273.13241241 -219.89979401 274.39763733 -220.26069641 275.70120239 C-221.1980262 279.08529688 -222.1533337 282.46406031 -223.11242676 285.84204102 C-224.03731794 289.11165209 -224.94442627 292.38611557 -225.85351562 295.66015625 C-232.12666528 318.13756319 -238.58905389 340.5616886 -245 363 C-128.18 363 -11.36 363 109 363 C105.04 349.14 101.08 335.28 97 321 C94.97408758 313.74951194 92.95424973 306.4986456 90.96484375 299.23828125 C90.47047655 297.44111795 89.97588534 295.64401627 89.48109436 293.8469696 C88.21625683 289.25159781 86.95357295 284.65563801 85.69171143 280.05944824 C83.67986918 272.73202474 81.66581079 265.40521119 79.64964676 258.07897568 C79.15435645 256.27909382 78.6592548 254.47916003 78.1643486 252.67917252 C75.41153575 242.67023054 72.63367615 232.66899262 69.80517578 222.68115234 C69.54689404 221.76874755 69.28861231 220.85634275 69.02250385 219.91628933 C67.78724955 215.55575985 66.54819381 211.19635538 65.30369568 206.8384552 C64.86461457 205.29360063 64.42557123 203.74873533 63.98657227 202.20385742 C63.78389551 201.49874464 63.58121876 200.79363186 63.37240028 200.06715202 C62 195.22621029 62 195.22621029 62 193 C35.00559756 189.91680078 35.00559756 189.91680078 9.546875 195.98388672 C4.53800648 201.24749549 2.39828814 207.7092252 0.23339844 214.53466797 C-1.87884105 220.46917456 -5.2362296 225.63982562 -8.5 231 C-9.7660181 233.18426294 -11.02646555 235.37176442 -12.28125 237.5625 C-16.40427014 244.70906825 -20.56452694 251.83365183 -24.72827148 258.95654297 C-28.39324913 265.231265 -32.03423394 271.5192729 -35.65844727 277.81762695 C-38.15455139 282.15340366 -40.65946159 286.484069 -43.1640625 290.81494141 C-44.99404745 293.98967328 -46.80971815 297.17231282 -48.625 300.35546875 C-49.7702594 302.34147691 -50.91606706 304.32716904 -52.0625 306.3125 C-52.57433838 307.2195166 -53.08617676 308.1265332 -53.61352539 309.06103516 C-56.73988718 314.43741056 -59.85010617 319.70315818 -66.125 321.6640625 C-67.053125 321.64472656 -67.053125 321.64472656 -68 321.625 C-68.61875 321.63789063 -69.2375 321.65078125 -69.875 321.6640625 C-77.89348918 319.15828463 -81.23390622 311.0006338 -85 304.1875 C-85.65752122 303.01943096 -86.31639965 301.85212497 -86.9765625 300.68554688 C-88.33110533 298.29062759 -89.68073533 295.89304079 -91.02734375 293.49365234 C-93.95477167 288.2921764 -96.97945099 283.14776289 -100 278 C-104.8626157 269.68341617 -109.69134683 261.34789132 -114.5 253 C-118.19141976 246.59365591 -121.88589881 240.18919648 -125.6015625 233.796875 C-126.18268799 232.79213135 -126.76381348 231.7873877 -127.36254883 230.75219727 C-128.53396112 228.75678836 -129.72914162 226.77513695 -130.94799805 224.80834961 C-134.00186081 219.82463549 -136.35567877 215.25423377 -138.04296875 209.64453125 C-140.39495917 202.85345994 -142.43655168 197.54315931 -149 194 C-164.63579517 190.26278487 -182.09697912 192.0125204 -198 193 C-198.26699707 194.07668945 -198.53399414 195.15337891 -198.80908203 196.26269531 C-199.16694418 197.70118382 -199.52485704 199.13965971 -199.8828125 200.578125 C-200.0578833 201.28469238 -200.2329541 201.99125977 -200.41333008 202.71923828 C-204.63530186 219.66562849 -204.63530186 219.66562849 -208.8125 223.75 C-213.54186917 225.60465457 -217.01995576 225.8100181 -221.75 223.875 C-224.66935191 221.44220674 -225.7747927 219.60755484 -227 216 C-226.3649921 208.44661805 -224.41659458 201.28678246 -222.40893555 193.99926758 C-222.01055938 192.53866368 -221.62190749 191.07537346 -221.24291992 189.60961914 C-220.68945512 187.46915679 -220.10789191 185.33813111 -219.51953125 183.20703125 C-219.18026611 181.9435083 -218.84100098 180.67998535 -218.49145508 179.37817383 C-216.73396147 175.39741773 -214.96059616 172.81840489 -211 171 C-207.21646975 170.34757703 -203.52495835 170.41676778 -199.6953125 170.51171875 C-198.61619598 170.51879349 -197.53707947 170.52586823 -196.42526245 170.53315735 C-192.99112552 170.56106338 -189.55864106 170.62379831 -186.125 170.6875 C-183.79169027 170.71258761 -181.4583549 170.73539996 -179.125 170.75585938 C-173.41610638 170.81087756 -167.70817127 170.89446684 -162 171 C-162.47283165 170.19801933 -162.47283165 170.19801933 -162.95521545 169.37983704 C-164.40295366 166.91855754 -165.84408103 164.45346736 -167.28515625 161.98828125 C-167.7810022 161.14753052 -168.27684814 160.30677979 -168.78771973 159.44055176 C-185.5988926 130.61242593 -189.33189246 97.03513758 -180.96875 64.9609375 C-173.01518763 36.36343135 -153.9557892 9.85891017 -128.24609375 -5.19140625 C-127.17488281 -5.78824219 -126.10367188 -6.38507813 -125 -7 C-123.53240234 -7.81791016 -123.53240234 -7.81791016 -122.03515625 -8.65234375 C-84.46622749 -28.47058402 -34.14989531 -25.85818105 0 0 Z " fill="#4990E2" transform="translate(324,74)"/>
<path d="M0 0 C2.24823348 1.67935638 4.35020226 3.43793104 6.44140625 5.30859375 C7.17746094 5.95183594 7.91351563 6.59507813 8.671875 7.2578125 C19.12441519 16.99072858 25.49642611 28.68349426 29.44140625 42.30859375 C29.68632812 43.10007813 29.93125 43.8915625 30.18359375 44.70703125 C35.19607576 64.27631034 30.65095579 85.30088428 20.63037109 102.41992188 C9.16577217 120.63144904 -8.80291408 131.55259195 -29.55859375 136.30859375 C-50.10901481 139.76033299 -70.74589615 135.44332998 -87.78515625 123.390625 C-104.01576844 111.20623585 -114.54990821 94.72880639 -118.22900391 74.62597656 C-121.07239369 54.63378706 -117.14033557 35.21189668 -105.64453125 18.53125 C-103.70576493 16.02475728 -101.68448585 13.65784412 -99.55859375 11.30859375 C-98.88183594 10.53902344 -98.20507812 9.76945312 -97.5078125 8.9765625 C-72.34596044 -18.02527874 -29.82297223 -19.71503355 0 0 Z M-85.5703125 29.65625 C-94.55826162 41.64668103 -98.1338331 55.6749453 -96.1328125 70.453125 C-93.10292194 85.82563723 -85.22672772 97.5341902 -72.578125 106.4453125 C-59.48831527 114.5227242 -44.96676477 116.4552926 -29.92578125 113.625 C-14.70208309 108.83529862 -3.66737949 99.3721125 3.9921875 85.5 C10.45047676 72.06904445 11.22940578 58.43681964 6.44140625 44.30859375 C0.94992907 30.45669459 -8.61339356 19.94784177 -22.05859375 13.55859375 C-45.29127411 3.70134465 -69.28461655 10.65100094 -85.5703125 29.65625 Z " fill="#4990E2" transform="translate(299.55859375,108.69140625)"/>
</svg>
