<svg version="1.1" xmlns="http://www.w3.org/2000/svg" width="512px" height="512px" transform="rotate(0) scale(1, 1)">
<path d="M0 0 C0.66762462 -0.00297112 1.33524924 -0.00594224 2.02310491 -0.0090034 C4.25298528 -0.01765252 6.48281172 -0.01919543 8.71270752 -0.02069092 C10.31458652 -0.02532178 11.91646443 -0.0303468 13.51834106 -0.03573608 C17.86561766 -0.04883636 22.21287883 -0.05530042 26.56017208 -0.05974674 C29.27845147 -0.06268134 31.99672668 -0.06678688 34.71500397 -0.07125092 C43.22647861 -0.08491968 51.73794365 -0.09458934 60.24942851 -0.09845281 C70.06241698 -0.10293199 79.87526606 -0.12047598 89.68821216 -0.1494534 C97.28159962 -0.17109533 104.87494794 -0.18115843 112.46836591 -0.18249393 C116.99974511 -0.18354016 121.53099315 -0.18940935 126.06233978 -0.20731354 C130.3272548 -0.22383768 134.59194068 -0.22592874 138.85687637 -0.21717453 C140.41728709 -0.21640647 141.97771035 -0.22071623 143.53808975 -0.23063278 C163.14050315 -0.34784896 163.14050315 -0.34784896 170.54571533 6.32794189 C171.16059814 6.85774658 171.77548096 7.38755127 172.40899658 7.93341064 C177.34874755 13.90976888 179.79927519 21.87824016 182.53399658 29.04278564 C182.93345993 30.07875381 183.33292328 31.11472198 183.74449158 32.18208313 C185.01531688 35.4792738 186.28088142 38.77844874 187.54571533 42.07794189 C190.00717391 48.48669016 192.47407053 54.89299234 194.97003174 61.28839111 C196.40228492 64.96142146 197.78520544 68.64540634 199.11749268 72.35577393 C199.69088098 73.88959329 200.26458728 75.42329383 200.83868408 76.95684814 C201.06824295 77.63779037 201.29780182 78.3187326 201.53431702 79.02030945 C203.03310623 82.92072253 204.59975289 84.62527601 208.25299072 86.39605713 C208.92914932 86.66659409 209.60530792 86.93713104 210.30195618 87.21586609 C217.10975691 90.47504952 221.20570871 99.50090814 224.98321533 105.64044189 C225.55942627 106.55180908 226.13563721 107.46317627 226.72930908 108.40216064 C227.28231689 109.29548096 227.83532471 110.18880127 228.40509033 111.10919189 C228.90105713 111.90776611 229.39702393 112.70634033 229.90802002 113.52911377 C233.20511395 120.02611389 233.52729085 125.98466448 233.50787354 133.13970947 C233.51553993 134.60944466 233.51553993 134.60944466 233.52336121 136.10887146 C233.53721265 139.33430157 233.53630355 142.5595169 233.53399658 145.78497314 C233.53788637 148.0378782 233.54222162 150.29078253 233.54698181 152.54368591 C233.55443478 157.26191588 233.55415971 161.98007101 233.54888916 166.69830322 C233.54310033 172.72711089 233.56001608 178.75561075 233.58323383 184.78436756 C233.59800925 189.43682123 233.5988376 194.08920145 233.59572411 198.74167442 C233.59623555 200.96349382 233.60143989 203.18531751 233.61153603 205.40711403 C233.62395484 208.52260601 233.61707563 211.63750729 233.60552979 214.75299072 C233.61317352 215.65981598 233.62081726 216.56664124 233.62869263 217.50094604 C233.55901749 226.06218438 231.85841392 234.45101655 226.23321533 241.14044189 C218.53196769 248.00065392 211.80312309 249.45313049 201.68243408 249.47637939 C200.16236504 249.48636459 200.16236504 249.48636459 198.61158752 249.49655151 C196.4725424 249.50665197 194.33346592 249.51136934 192.19439697 249.51104736 C188.94182719 249.51541355 185.69062288 249.55174265 182.43829346 249.58966064 C180.3530116 249.59553092 178.26772335 249.5994989 176.18243408 249.60137939 C175.21964035 249.61575043 174.25684662 249.63012146 173.26487732 249.64492798 C165.1403256 249.59064317 158.1833634 247.35277365 151.92071533 242.01544189 C139.70950659 229.18332423 144.23321533 214.7616758 144.23321533 197.14044189 C98.69321533 197.14044189 53.15321533 197.14044189 6.23321533 197.14044189 C6.23321533 206.38044189 6.23321533 215.62044189 6.23321533 225.14044189 C3.06070816 235.7154658 0.61068874 241.60072451 -8.76678467 247.14044189 C-14.26842268 249.49418239 -19.43681061 249.46287032 -25.31756592 249.47637939 C-26.83763496 249.48636459 -26.83763496 249.48636459 -28.38841248 249.49655151 C-30.5274576 249.50665197 -32.66653408 249.51136934 -34.80560303 249.51104736 C-38.05817281 249.51541355 -41.30937712 249.55174265 -44.56170654 249.58966064 C-46.6469884 249.59553092 -48.73227665 249.5994989 -50.81756592 249.60137939 C-51.78035965 249.61575043 -52.74315338 249.63012146 -53.73512268 249.64492798 C-62.86450951 249.58392929 -70.2811637 246.62646625 -76.89960384 240.26610374 C-82.62701525 233.74582474 -83.35303906 225.63508817 -83.26849365 217.30987549 C-83.27389664 216.27763351 -83.27929962 215.24539154 -83.28486633 214.18186951 C-83.29728157 210.80057299 -83.28091235 207.42013986 -83.26287842 204.03887939 C-83.26303355 201.67336991 -83.26452486 199.30786017 -83.26728821 196.94235229 C-83.2686689 191.99817594 -83.25616712 187.05429085 -83.2333374 182.11016846 C-83.20492305 175.78415482 -83.20770319 169.45862359 -83.22042751 163.13257408 C-83.22739283 158.2528575 -83.21958608 153.37325177 -83.20717049 148.49354935 C-83.20266651 146.16123505 -83.20230994 143.82890882 -83.20623589 141.49659348 C-83.2091572 138.2348884 -83.19259741 134.97384104 -83.1708374 131.71221924 C-83.17533905 130.75616287 -83.1798407 129.80010651 -83.18447876 128.81507874 C-83.0682797 118.29330387 -78.79454115 111.09675109 -73.01678467 102.51544189 C-72.12346436 101.14259033 -72.12346436 101.14259033 -71.21209717 99.74200439 C-63.05423707 87.52287195 -63.05423707 87.52287195 -56.29205322 85.34249878 C-53.19077044 83.8662525 -52.78245547 82.92973981 -51.59783936 79.76446533 C-51.24687195 78.85460876 -50.89590454 77.9447522 -50.53430176 77.00732422 C-50.17273987 76.0148468 -49.81117798 75.02236938 -49.43865967 73.99981689 C-48.84870209 72.45091766 -48.84870209 72.45091766 -48.24682617 70.87072754 C-46.98604787 67.5502477 -45.7507267 64.22097633 -44.51678467 60.89044189 C-43.70213589 58.72441551 -42.8857466 56.55904289 -42.06756592 54.39434814 C-41.66461304 53.32801147 -41.26166016 52.2616748 -40.84649658 51.1630249 C-38.82519822 45.82014111 -36.8000636 40.47877882 -34.76678467 35.14044189 C-34.37354004 34.10169922 -33.98029541 33.06295654 -33.57513428 31.99273682 C-32.4334357 28.99799731 -31.26790577 26.01366541 -30.09490967 23.03106689 C-29.76198914 22.14828064 -29.4290686 21.26549438 -29.08605957 20.35595703 C-25.58926369 11.6043497 -20.38686258 5.13121871 -11.76678467 1.14044189 C-7.81270971 0.12275983 -4.0740339 0.01015752 0 0 Z M-9.76678467 20.14044189 C-11.00054373 21.85034099 -11.00054373 21.85034099 -11.70843506 23.83599854 C-12.16046547 24.94146278 -12.16046547 24.94146278 -12.62162781 26.06925964 C-12.92863113 26.86747635 -13.23563446 27.66569305 -13.55194092 28.48809814 C-14.05734154 29.74482079 -14.05734154 29.74482079 -14.57295227 31.02693176 C-15.65343755 33.7254247 -16.71051933 36.43238874 -17.76678467 39.14044189 C-18.47370907 40.91942067 -19.18187343 42.69790723 -19.89129639 44.47589111 C-21.66387585 48.93358305 -23.41291933 53.40002876 -25.15130615 57.87115479 C-26.22442919 60.62972542 -27.30301338 63.38612073 -28.38201904 66.14239502 C-29.07179187 67.91115058 -29.76125718 69.68002611 -30.45037842 71.44903564 C-30.77010117 72.26561142 -31.08982391 73.08218719 -31.41923523 73.92350769 C-31.7136702 74.68273026 -32.00810516 75.44195282 -32.3114624 76.22418213 C-32.56935043 76.88635239 -32.82723846 77.54852264 -33.09294128 78.23075867 C-33.7742065 80.16147549 -34.27022061 82.15418565 -34.76678467 84.14044189 C-1.10678467 84.14044189 32.55321533 84.14044189 67.23321533 84.14044189 C69.21321533 78.86044189 71.19321533 73.58044189 73.23321533 68.14044189 C75.22879794 65.04091996 76.79248327 62.73942591 79.23321533 60.14044189 C79.80169189 59.51782471 80.37016846 58.89520752 80.95587158 58.25372314 C89.88053501 48.89753753 101.25272754 44.09491974 114.10528564 43.59307861 C127.45357465 43.5058165 139.7057427 47.19015566 149.67852783 56.39825439 C157.77173289 64.91882341 160.85736397 72.88760403 164.23321533 84.14044189 C171.16321533 84.14044189 178.09321533 84.14044189 185.23321533 84.14044189 C181.87237706 75.20290205 178.48767359 66.27486171 175.0791626 57.35540771 C174.50932679 55.86339174 173.94016702 54.37111742 173.37164307 52.87860107 C171.64213673 48.33858632 169.90115746 43.80327066 168.1444397 39.27371216 C167.58065889 37.81513127 167.02058982 36.35511003 166.46432495 34.89364624 C165.67989556 32.83514044 164.88206822 30.78231319 164.08087158 28.73028564 C163.40036743 26.9647937 163.40036743 26.9647937 162.70611572 25.16363525 C160.89985623 21.45620756 158.94470091 18.99618468 155.23321533 17.14044189 C153.141419 17.03977205 151.04634378 17.00531734 148.95213318 17 C148.30058378 16.99702888 147.64903438 16.99405776 146.97774106 16.9909966 C144.78448461 16.98229327 142.59128263 16.98079998 140.39801025 16.97930908 C138.82949201 16.97468204 137.2609749 16.96965753 135.69245911 16.96426392 C131.42378335 16.95112637 127.15512333 16.94469225 122.8864305 16.94025326 C120.22062896 16.93732452 117.55483174 16.93322008 114.88903236 16.92874908 C106.55161883 16.91507017 98.21421516 16.90540562 89.87679118 16.90154719 C80.24654309 16.89706625 70.61643692 16.87951838 60.98623198 16.8505466 C53.54668167 16.82894086 46.10717132 16.81884349 38.66758996 16.81750607 C34.22236545 16.81645719 29.77727428 16.81053175 25.33208275 16.79268646 C21.15011681 16.77622503 16.9683847 16.77404083 12.78639793 16.78282547 C11.25172297 16.7835969 9.71703553 16.77923915 8.18239212 16.76936722 C6.0863984 16.75667544 3.9912363 16.76250859 1.89524841 16.77294922 C0.72256 16.77148266 -0.45012842 16.7700161 -1.65835285 16.7685051 C-5.10910712 17.1814022 -6.98588626 18.09526739 -9.76678467 20.14044189 Z M90.23321533 72.14044189 C87.55622625 76.00581398 85.23321533 79.36333645 85.23321533 84.14044189 C105.69321533 84.14044189 126.15321533 84.14044189 147.23321533 84.14044189 C142.40940812 72.08092387 138.58629838 66.58454937 127.03009033 61.46856689 C113.21555722 56.11596773 99.62580332 61.60151442 90.23321533 72.14044189 Z M-54.42596436 105.08575439 C-54.84265381 105.80505127 -55.25934326 106.52434814 -55.68865967 107.26544189 C-56.15658936 108.05434814 -56.62451904 108.84325439 -57.10662842 109.65606689 C-57.80465576 110.88583252 -57.80465576 110.88583252 -58.51678467 112.14044189 C-59.46983655 113.76548478 -60.42295869 115.39048646 -61.37615967 117.01544189 C-61.7883374 117.73473877 -62.20051514 118.45403564 -62.62518311 119.19512939 C-63.61362579 120.87945602 -64.6834884 122.51549749 -65.76678467 124.14044189 C-66.07684005 126.5226649 -66.07684005 126.5226649 -66.04144287 129.20684814 C-66.05097488 130.23801758 -66.0605069 131.26918701 -66.07032776 132.331604 C-66.06941635 133.44414551 -66.06850494 134.55668701 -66.06756592 135.70294189 C-66.07185104 136.84577637 -66.07613617 137.98861084 -66.08055115 139.16607666 C-66.08629711 141.58363176 -66.08679276 144.00120416 -66.0824585 146.41876221 C-66.07929718 150.12576639 -66.10276012 153.83197386 -66.12811279 157.53887939 C-66.13038554 159.88523255 -66.1310894 162.23158786 -66.13006592 164.57794189 C-66.13927567 165.6904834 -66.14848541 166.8030249 -66.15797424 167.94927979 C-66.15174545 168.98044922 -66.14551666 170.01161865 -66.13909912 171.07403564 C-66.13972855 171.98209961 -66.14035797 172.89016357 -66.14100647 173.82574463 C-65.68984415 176.61634685 -65.00601387 177.4641458 -62.76678467 179.14044189 C-59.91398246 180.09137596 -58.1529279 180.26735301 -55.19491768 180.27186966 C-53.77980799 180.27763138 -53.77980799 180.27763138 -52.33611023 180.28350949 C-50.77849986 180.28220977 -50.77849986 180.28220977 -49.18942261 180.28088379 C-48.08782802 180.28385491 -46.98623344 180.28682603 -45.85125721 180.28988719 C-42.1409632 180.29859455 -38.43070138 180.30008415 -34.72039795 180.30157471 C-32.06800177 180.30620139 -29.41560856 180.31120506 -26.76321411 180.31661987 C-19.54427969 180.33020556 -12.32535082 180.33622813 -5.10640574 180.34063053 C-0.60017053 180.34339225 3.90606254 180.34762945 8.4122963 180.3521347 C20.88534091 180.36432711 33.3583838 180.37462685 45.83143425 180.3780098 C46.62982611 180.37822936 47.42821798 180.37844893 48.25080354 180.37867515 C49.0511179 180.37889343 49.85143226 180.3791117 50.67599857 180.3793366 C52.29777265 180.37978006 53.91954672 180.38022663 55.5413208 180.38067627 C56.7480077 180.38100841 56.7480077 180.38100841 57.97907211 180.38134727 C71.01851323 180.38529655 84.0578985 180.40275464 97.09731804 180.42603579 C110.48017625 180.44973759 123.86300642 180.46221109 137.24588597 180.46337771 C144.76174213 180.46429508 152.27752552 180.47006279 159.79336166 180.48819733 C166.19229843 180.50358245 172.59113993 180.50872817 178.99009167 180.50045922 C182.25554425 180.49654718 185.52076433 180.4991347 188.78620148 180.51151657 C192.32492988 180.52415046 195.86316165 180.51840562 199.40188599 180.50793457 C200.43583146 180.51599097 201.46977693 180.52404738 202.53505409 180.53234792 C209.38711489 180.51440932 209.38711489 180.51440932 215.23321533 177.14044189 C216.41926387 174.76834482 216.4108373 173.21015514 216.48956299 170.56158447 C216.53302353 169.13287773 216.53302353 169.13287773 216.57736206 167.67530823 C216.67549691 163.26748584 216.74910623 158.85981668 216.80303955 154.45123291 C216.83946199 152.1419533 216.89378811 149.83287801 216.96710205 147.5244751 C217.44032109 132.38473684 216.6516807 122.23062093 207.23321533 110.14044189 C206.29727035 108.54744614 205.3768311 106.94506259 204.48321533 105.32794189 C201.96475721 101.76012621 201.32329092 101.26438081 197.23321533 100.14044189 C193.9572165 99.85639484 190.69578195 99.86639978 187.40913391 99.87974548 C186.41270841 99.87591994 185.4162829 99.87209439 184.38966268 99.86815292 C181.04717687 99.85782516 177.7048629 99.86181468 174.36236572 99.86578369 C171.96745138 99.86143712 169.57253844 99.85625415 167.17762756 99.85029602 C161.34557328 99.83828217 155.51357258 99.83575528 149.68150742 99.83809628 C144.94101659 99.83987957 140.20053974 99.83812958 135.46005058 99.83387184 C134.44788305 99.83297906 134.44788305 99.83297906 133.41526769 99.83206824 C132.04444174 99.83085648 130.6736158 99.82964235 129.30278986 99.82842586 C116.44840368 99.81755049 103.59404374 99.81971285 90.73965608 99.82581071 C78.98138265 99.83098031 67.22319206 99.8197233 55.46493501 99.80071249 C43.38942739 99.78133851 31.31395896 99.77307728 19.23843569 99.77683574 C12.45978757 99.7787484 5.68120997 99.77625392 -1.09742546 99.7621212 C-7.47089098 99.74956997 -13.84419038 99.75146143 -20.21765327 99.76453209 C-22.5581836 99.76690326 -24.89872552 99.76414392 -27.23924255 99.75590897 C-30.43159572 99.74548587 -33.6233869 99.75350686 -36.8157196 99.76622009 C-37.74422334 99.75884581 -38.67272708 99.75147152 -39.62936729 99.74387378 C-45.49703417 99.79311113 -50.38189797 100.34427103 -54.42596436 105.08575439 Z M-65.76678467 196.14044189 C-65.86990967 200.98731689 -65.97303467 205.83419189 -66.07928467 210.82794189 C-66.12480469 212.34863281 -66.17032471 213.86932373 -66.21722412 215.43609619 C-66.22971191 216.64177246 -66.24219971 217.84744873 -66.25506592 219.08966064 C-66.28125 220.3203125 -66.30743408 221.55096436 -66.33441162 222.81890869 C-65.61193273 227.0465755 -64.0358636 228.4669155 -60.76678467 231.14044189 C-57.37335652 232.83715597 -53.51255955 232.32534346 -49.77850342 232.34356689 C-48.88315384 232.34926697 -47.98780426 232.35496704 -47.06532288 232.36083984 C-45.168052 232.3702958 -43.27076465 232.37682618 -41.37347412 232.38067627 C-38.47628936 232.39036828 -35.57981805 232.42138021 -32.68280029 232.45294189 C-30.83970555 232.45947332 -28.99660573 232.46472324 -27.15350342 232.46856689 C-25.8563868 232.4870871 -25.8563868 232.4870871 -24.5330658 232.50598145 C-19.8211563 232.48860971 -16.51741223 232.32279255 -12.76678467 229.14044189 C-10.33821819 225.81541247 -10.53488184 222.64975319 -10.57147217 218.62481689 C-10.57646729 217.497854 -10.5814624 216.37089111 -10.58660889 215.20977783 C-10.60481689 213.78439697 -10.6230249 212.35901611 -10.64178467 210.89044189 C-10.68303467 206.35294189 -10.72428467 201.81544189 -10.76678467 197.14044189 C-28.91678467 196.81044189 -47.06678467 196.48044189 -65.76678467 196.14044189 Z M207.09747314 196.23223877 C206.07671692 196.25225952 205.05596069 196.27228027 204.00427246 196.29290771 C202.90935486 196.31478149 201.81443726 196.33665527 200.68634033 196.35919189 C198.99683258 196.39248596 198.99683258 196.39248596 197.27319336 196.42645264 C193.67652664 196.49741446 190.07987099 196.56892158 186.48321533 196.64044189 C184.04441396 196.6886549 181.60561188 196.73683242 179.16680908 196.78497314 C173.18893629 196.903051 167.21107251 197.02157654 161.23321533 197.14044189 C161.10915526 201.17869255 161.01866489 205.21619827 160.95855713 209.25592041 C160.93348916 210.62851291 160.89942451 212.00097291 160.85601807 213.37310791 C160.79504002 215.35094886 160.76960524 217.32978373 160.74493408 219.30841064 C160.71875 220.49716797 160.69256592 221.68592529 160.66558838 222.91070557 C161.39642191 227.06906976 163.02401563 228.4989749 166.23321533 231.14044189 C169.62664348 232.83715597 173.48744045 232.32534346 177.22149658 232.34356689 C178.11684616 232.34926697 179.01219574 232.35496704 179.93467712 232.36083984 C181.831948 232.3702958 183.72923535 232.37682618 185.62652588 232.38067627 C188.52371064 232.39036828 191.42018195 232.42138021 194.31719971 232.45294189 C196.16029445 232.45947332 198.00339427 232.46472324 199.84649658 232.46856689 C201.1436132 232.4870871 201.1436132 232.4870871 202.4669342 232.50598145 C207.1788437 232.48860971 210.48258777 232.32279255 214.23321533 229.14044189 C216.71211485 225.77256414 216.46432683 222.48715306 216.42852783 218.40606689 C216.41885986 216.46280518 216.41885986 216.46280518 216.40899658 214.48028564 C216.39228726 213.11700171 216.37535739 211.75372046 216.35821533 210.39044189 C216.34817873 209.01154205 216.33905407 207.63263524 216.33087158 206.25372314 C216.30729627 202.88245307 216.27438803 199.51153553 216.23321533 196.14044189 C213.18479597 196.14044189 210.14481274 196.17189541 207.09747314 196.23223877 Z " fill="#4a90e2" transform="translate(115.76678466796875,232.85955810546875)"/>
<path d="M0 0 C1.45050499 -0.01007584 1.45050499 -0.01007584 2.93031311 -0.02035522 C6.10821762 -0.03925979 9.28591004 -0.04325573 12.46386719 -0.04541016 C14.68813156 -0.05184368 16.91239509 -0.05857245 19.13665771 -0.06558228 C23.79343628 -0.07753647 28.45014077 -0.08126504 33.10693359 -0.08007812 C39.04927619 -0.07987513 44.99113951 -0.10716594 50.93336868 -0.14162254 C55.52671453 -0.16395348 60.1199462 -0.16791375 64.71334076 -0.16685867 C66.90281575 -0.16920574 69.09229433 -0.17797833 71.28171539 -0.19352341 C86.81821886 -0.29350184 99.36012659 0.23365499 112.01074219 10.29052734 C112.625625 10.76876953 113.24050781 11.24701172 113.87402344 11.73974609 C120.59856644 17.65913317 125.71636705 27.44697165 127.01074219 36.29052734 C127.16681307 39.53187687 127.1782129 42.77044463 127.18774414 46.01513672 C127.19431534 46.98984924 127.20088654 47.96456177 127.20765686 48.96881104 C127.22734497 52.190634 127.23904485 55.41241036 127.24902344 58.63427734 C127.25309896 59.73878738 127.25717449 60.84329742 127.26137352 61.98127747 C127.28221893 67.83175467 127.29652515 73.68220856 127.3059082 79.53271484 C127.31694653 85.55012261 127.35132142 91.56715794 127.3910799 97.58443451 C127.41733783 102.23271328 127.42560837 106.8809047 127.42918968 111.5292511 C127.43403488 113.74581913 127.44558921 115.96238382 127.46422768 118.17887878 C127.69590524 147.56544575 127.69590524 147.56544575 117.01074219 159.29052734 C116.5325 159.88220703 116.05425781 160.47388672 115.56152344 161.08349609 C109.62366822 167.8589329 99.91257819 172.98297748 91.01074219 174.29052734 C88.00334369 174.4201899 85.00091353 174.40696092 81.99121094 174.38818359 C81.13263992 174.38676865 80.27406891 174.3853537 79.38948059 174.38389587 C76.6590317 174.37831792 73.92866612 174.36576948 71.19824219 174.35302734 C69.34212358 174.34800949 67.48600369 174.34344709 65.62988281 174.33935547 C61.09013738 174.3283557 56.55045389 174.31110627 52.01074219 174.29052734 C52.01264079 174.86379277 52.01453939 175.43705819 52.01649553 176.0276953 C52.12836532 209.9976671 52.21416449 243.96759705 52.26606883 277.93771289 C52.27232243 282.01576723 52.27879404 286.09382121 52.28540039 290.171875 C52.28671194 290.98374836 52.28802349 291.79562171 52.28937479 292.63209729 C52.3111364 305.78101671 52.35056205 318.92982693 52.39650617 332.07868154 C52.44324985 345.56879174 52.47103315 359.05884471 52.48118466 372.54903257 C52.48804818 380.87448575 52.50973226 389.19963028 52.55032452 397.52498846 C52.57673716 403.23259409 52.58474658 408.94003996 52.57824907 414.64770229 C52.57504376 417.9417706 52.58271156 421.23518479 52.60676956 424.52918243 C52.63158079 428.10083106 52.6256892 431.67115013 52.61201477 435.24282837 C52.62657898 436.28368926 52.64114318 437.32455014 52.65614873 438.39695227 C52.60914744 442.92667096 52.53958328 446.271183 49.69191265 449.93413353 C47.01074219 452.29052734 47.01074219 452.29052734 43.51074219 453.04052734 C39.77824294 452.24070608 38.3636149 451.26422029 36.04103625 448.27669406 C33.92604146 444.19947725 34.34661899 439.73457636 34.4094696 435.24282837 C34.40519748 434.12697558 34.40092536 433.01112279 34.39652377 431.86145627 C34.38828509 428.12077142 34.41579557 424.38120664 34.44311523 420.640625 C34.44452552 417.95994541 34.44395434 415.27933452 34.44090271 412.59866333 C34.43828294 406.82660951 34.45394923 401.05483864 34.4820919 395.28285599 C34.52275455 386.93762344 34.53575192 378.59252749 34.54203186 370.24720661 C34.55297073 356.70704459 34.58623381 343.16703331 34.63354492 329.62695312 C34.6794511 316.47526808 34.71483781 303.323624 34.73608398 290.171875 C34.7373976 289.36098854 34.73871122 288.55010209 34.74006464 287.71464331 C34.74658991 283.6466 34.75290843 279.57855639 34.75912416 275.51051259 C34.81094447 241.77040819 34.89899859 208.03048626 35.01074219 174.29052734 C34.4566568 174.29718918 33.90257141 174.30385101 33.33169556 174.31071472 C27.52343597 174.37749384 21.71528685 174.42250313 15.90673828 174.45532227 C13.74393274 174.47033502 11.58115726 174.49075151 9.41845703 174.5168457 C6.29549708 174.553561 3.17294239 174.5703293 0.04980469 174.58349609 C-1.3820668 174.60672188 -1.3820668 174.60672188 -2.84286499 174.63041687 C-15.91420608 174.6336356 -26.47086939 169.8774447 -35.86425781 160.85302734 C-48.17517801 147.82686002 -47.45341038 132.48533034 -47.42285156 115.57958984 C-47.42742009 113.36200807 -47.43272765 111.14442771 -47.43873596 108.92684937 C-47.44764053 104.29215726 -47.44527443 99.65763772 -47.43530273 95.02294922 C-47.42382053 89.11327247 -47.44402726 83.20419395 -47.47321987 77.29459572 C-47.49165545 72.71835612 -47.4912747 68.14225791 -47.48558235 63.56599045 C-47.48543002 61.38851457 -47.49140093 59.21102857 -47.50387383 57.03358841 C-47.58023305 41.51923789 -47.21374842 27.891655 -36.98925781 15.29052734 C-36.4878125 14.66533203 -35.98636719 14.04013672 -35.46972656 13.39599609 C-26.32299635 3.18103462 -13.17456941 -0.01331504 0 0 Z M-15.98925781 20.29052734 C-10.94167355 26.43654964 -5.39366821 32.03924472 0.23510742 37.64526367 C1.84054733 39.24527396 3.44048526 40.85065044 5.04003906 42.45654297 C6.0572961 43.47314041 7.07486265 44.48942825 8.09277344 45.50537109 C9.01292236 46.42439209 9.93307129 47.34341309 10.88110352 48.2902832 C12.64527594 50.40463006 12.64527594 50.40463006 14.01074219 50.29052734 C14.01074219 48.31052734 14.01074219 46.33052734 14.01074219 44.29052734 C19.40073387 44.33493668 24.78958256 44.40503573 30.17895508 44.49804688 C32.00894022 44.52611859 33.8390435 44.54740118 35.66918945 44.56152344 C38.31359748 44.58314574 40.95660555 44.62989081 43.60058594 44.68115234 C44.40721176 44.68238098 45.21383759 44.68360962 46.04490662 44.68487549 C53.84044016 44.88191613 60.8868692 47.40693739 66.38574219 53.10302734 C72.94142649 60.12790575 74.41582612 68.14739051 74.28808594 77.57177734 C73.45921089 85.69708767 70.05942844 92.79486383 64.01074219 98.29052734 C63.02074219 98.78552734 63.02074219 98.78552734 62.01074219 99.29052734 C63.33643289 102.23295122 64.77066592 104.2931362 67.06420898 106.55517578 C67.68212814 107.16971619 68.3000473 107.78425659 68.93669128 108.41741943 C69.93820976 109.39874847 69.93820976 109.39874847 70.95996094 110.39990234 C71.99622368 111.42836273 71.99622368 111.42836273 73.05342102 112.4776001 C75.26366357 114.67004811 77.48045211 116.85571645 79.69824219 119.04052734 C81.89735522 121.21185855 84.09493585 123.38468398 86.289505 125.56060791 C87.65352452 126.91255191 89.02020612 128.26181755 90.39006042 129.60784912 C94.2794907 133.45719365 97.93424566 137.42258364 101.45417786 141.61383057 C103.10232434 143.51941894 103.10232434 143.51941894 106.01074219 145.29052734 C109.39000059 138.88001329 110.60135117 133.67322161 110.56005859 126.46313477 C110.57028046 125.52524612 110.58050232 124.58735748 110.59103394 123.62104797 C110.61864767 120.54576503 110.61692603 117.47138766 110.61230469 114.39599609 C110.62008912 112.24041924 110.62876062 110.08484542 110.63827515 107.92927551 C110.65316172 103.41962728 110.65264535 98.9102923 110.64208984 94.40063477 C110.63051262 88.64746682 110.66434864 82.8955892 110.71077919 77.14263439 C110.74037657 72.69249592 110.74198069 68.24266371 110.73575974 63.79244423 C110.73678027 61.67273722 110.74714433 59.55301173 110.76738358 57.43340111 C110.92999115 39.80798097 110.92999115 39.80798097 102.60806274 24.6158905 C96.0281672 18.43017339 87.79570849 16.69256471 79.10400391 16.78881836 C78.1580838 16.78341537 77.2121637 16.77801239 76.23757935 16.77244568 C73.13820257 16.76002755 70.03976718 16.776401 66.94042969 16.79443359 C64.77287752 16.79427847 62.60532507 16.7927873 60.43777466 16.7900238 C55.90712135 16.78864299 51.37678584 16.80114691 46.84619141 16.82397461 C41.04802934 16.85239198 35.25039353 16.84960828 29.45219231 16.8368845 C24.98084033 16.82992073 20.50960938 16.83772408 16.03827286 16.85014153 C13.90050852 16.85464681 11.76273115 16.85500091 9.62496567 16.85107613 C6.63593768 16.84815623 3.64762841 16.86470733 0.65869141 16.88647461 C-0.21837463 16.88197296 -1.09544067 16.87747131 -1.99908447 16.87283325 C-7.40370532 16.93801904 -11.16159174 17.83295854 -15.98925781 20.29052734 Z M-27.98925781 33.29052734 C-30.43426057 38.04982063 -30.28513492 42.49219661 -30.27978516 47.71142578 C-30.28650238 48.65354919 -30.2932196 49.59567261 -30.30014038 50.56634521 C-30.31912061 53.67758476 -30.32304485 56.78860852 -30.32519531 59.89990234 C-30.33162409 62.06838062 -30.33835251 64.23685802 -30.34536743 66.40533447 C-30.35734089 70.95139577 -30.36104827 75.49738108 -30.35986328 80.04345703 C-30.35966029 85.85502865 -30.38694177 91.66611016 -30.4214077 97.47756577 C-30.44370074 101.95756242 -30.44770005 106.43744167 -30.44664383 110.9174881 C-30.44899695 113.05920345 -30.45780412 115.20092218 -30.47330856 117.3425827 C-30.49301321 120.34608236 -30.48711224 123.34853243 -30.47509766 126.35205078 C-30.48633667 127.22821045 -30.49757568 128.10437012 -30.50915527 129.00708008 C-30.42556995 137.27430059 -27.56737151 144.68543124 -21.81750488 150.73313904 C-11.69888004 159.35266769 0.94760336 157.97119215 13.41699219 157.84912109 C15.59126501 157.84486555 17.7655424 157.84254181 19.93981934 157.84205627 C24.47539139 157.83591631 29.01046465 157.81332814 33.54589844 157.77758789 C39.36450836 157.73210125 45.18267063 157.71754898 51.00144196 157.71385098 C55.48120547 157.70942975 59.96087481 157.69414245 64.44059753 157.67497444 C66.58724698 157.66608993 68.73390645 157.65936105 70.88056946 157.65481377 C73.87009737 157.64579655 76.85921542 157.62343349 79.84863281 157.59692383 C80.73693787 157.59625916 81.62524292 157.59559448 82.54046631 157.59490967 C83.35328064 157.58493454 84.16609497 157.57495941 85.00354004 157.56468201 C85.70917336 157.5600315 86.41480667 157.55538099 87.14182281 157.55058956 C89.34426304 157.38215235 89.34426304 157.38215235 92.01074219 155.29052734 C91.55021957 154.83222534 91.08969696 154.37392334 90.61521912 153.9017334 C85.79370012 149.10245254 80.97579579 144.29956441 76.15991211 139.49462891 C74.36557715 137.70530199 72.57034305 135.91687624 70.77416992 134.12939453 C68.18264846 131.55009384 65.5944492 128.96749812 63.00683594 126.38427734 C62.21176132 125.59436401 61.41668671 124.80445068 60.59751892 123.99060059 C57.01515916 120.40859673 53.522281 116.79665416 50.19848633 112.97216797 C49.63545303 112.32687134 49.07241974 111.68157471 48.49232483 111.01672363 C47.30403472 109.63224333 46.14462998 108.2229937 44.99511719 106.80615234 C42.09339849 104.58987901 39.84986486 104.89696244 36.26074219 105.04052734 C35.09027344 105.07662109 33.91980469 105.11271484 32.71386719 105.14990234 C31.82183594 105.19630859 30.92980469 105.24271484 30.01074219 105.29052734 C29.99615967 106.12302002 29.98157715 106.9555127 29.96655273 107.81323242 C29.90545588 110.90542387 29.83129663 113.99694816 29.74829102 117.08862305 C29.698729 119.08343364 29.66423085 121.07859992 29.62988281 123.07373047 C29.59443359 124.32734375 29.55898438 125.58095703 29.52246094 126.87255859 C29.49627686 128.02989502 29.47009277 129.18723145 29.44311523 130.37963867 C29.01074219 133.29052734 29.01074219 133.29052734 27.59985352 135.16674805 C25.61418287 136.57096406 24.42817942 136.69299822 22.01074219 136.66552734 C20.98980469 136.67712891 20.98980469 136.67712891 19.94824219 136.68896484 C17.37867324 136.16054542 16.60149544 135.36698753 15.01074219 133.29052734 C14.74659729 130.86244202 14.74659729 130.86244202 14.89575195 127.94311523 C14.96289146 126.29848045 14.96289146 126.29848045 15.03138733 124.62062073 C15.08773849 123.43016647 15.14408966 122.23971222 15.20214844 121.01318359 C15.26280247 118.47098715 15.31795289 115.92865461 15.36816406 113.38623047 C15.45093468 109.39040121 15.57041119 105.40643882 15.78198242 101.41479492 C16.85739222 84.24822393 16.85739222 84.24822393 9.69775391 69.23144531 C5.57583572 64.87834783 1.10803066 61.0575775 -3.57629395 57.32626343 C-7.13699935 54.32221659 -10.02247482 50.86416025 -12.98925781 47.29052734 C-14.20972869 45.99354244 -15.44219222 44.70739118 -16.70019531 43.44677734 C-17.30476563 42.84091797 -17.90933594 42.23505859 -18.53222656 41.61083984 C-19.13679688 41.01013672 -19.74136719 40.40943359 -20.36425781 39.79052734 C-20.99203125 39.15888672 -21.61980469 38.52724609 -22.26660156 37.87646484 C-22.8634375 37.28091797 -23.46027344 36.68537109 -24.07519531 36.07177734 C-24.61192871 35.53617188 -25.14866211 35.00056641 -25.70166016 34.44873047 C-26.82452706 33.17906698 -26.82452706 33.17906698 -27.98925781 33.29052734 Z M30.01074219 60.29052734 C29.45077607 63.47349262 29.2503745 65.2040348 30.01074219 68.29052734 C32.76087871 72.05990306 36.09510523 75.12754063 39.51074219 78.29052734 C40.41695312 79.16064453 41.32316406 80.03076172 42.25683594 80.92724609 C44.49117693 83.06750957 46.74197026 85.18689559 49.01074219 87.29052734 C53.38068258 84.81930069 55.69069908 82.84468603 58.01074219 78.29052734 C58.89010541 73.84041649 58.38427529 70.99757214 56.26074219 66.97802734 C52.74847661 62.78282124 50.40974193 61.10185244 45.01074219 60.29052734 C42.3959226 60.2227859 39.81094963 60.19552476 37.19824219 60.22802734 C36.50537109 60.23253906 35.8125 60.23705078 35.09863281 60.24169922 C33.40263151 60.25339578 31.70667516 60.2713281 30.01074219 60.29052734 Z " fill="#4a90e2" transform="translate(351.9892578125,29.70947265625)"/>
<path d="M0 0 C1.43718132 -0.01441132 1.43718132 -0.01441132 2.90339661 -0.02911377 C4.4472126 -0.03548859 4.4472126 -0.03548859 6.0222168 -0.04199219 C7.08756149 -0.04769226 8.15290619 -0.05339233 9.25053406 -0.05926514 C11.50408945 -0.06870662 13.7576586 -0.07524573 16.01123047 -0.07910156 C19.44808197 -0.08880128 22.88433386 -0.11983095 26.32104492 -0.15136719 C28.51309867 -0.15789822 30.70515669 -0.1631483 32.8972168 -0.16699219 C34.43192375 -0.18551239 34.43192375 -0.18551239 35.99763489 -0.20440674 C42.79679093 -0.18331805 47.95815295 0.42676662 53.3034668 4.99316406 C54.12911133 5.97349609 54.12911133 5.97349609 54.97143555 6.97363281 C55.81641602 7.94236328 55.81641602 7.94236328 56.6784668 8.93066406 C60.39420488 14.52878133 60.49681161 20.10743603 60.47143555 26.59863281 C60.48754883 27.41912109 60.50366211 28.23960937 60.52026367 29.08496094 C60.52580903 36.03329813 59.01246636 41.44628198 54.47143555 46.91113281 C54.03444336 47.46285156 53.59745117 48.01457031 53.1472168 48.58300781 C46.96363579 53.49099745 39.91212711 53.60714779 32.37768555 53.55957031 C31.3647644 53.56244049 30.35184326 53.56531067 29.30822754 53.56826782 C27.17691485 53.57029987 25.04558315 53.56483047 22.91430664 53.55224609 C19.66859888 53.53618064 16.42413624 53.55212463 13.1784668 53.57128906 C11.09903699 53.56930648 9.01960795 53.56546249 6.94018555 53.55957031 C5.49766418 53.56867935 5.49766418 53.56867935 4.02600098 53.57797241 C-2.73152668 53.50809928 -8.70119953 52.77586353 -14.08325195 48.29394531 C-14.62208008 47.63136719 -15.1609082 46.96878906 -15.71606445 46.28613281 C-16.27036133 45.62871094 -16.8246582 44.97128906 -17.39575195 44.29394531 C-21.21662406 38.65557729 -21.20681827 33.47351995 -21.21606445 26.84863281 C-21.24055664 25.93662109 -21.26504883 25.02460938 -21.2902832 24.08496094 C-21.32206873 16.6948262 -19.74928116 11.47263738 -14.84106445 5.88378906 C-14.18106445 5.3359375 -13.52106445 4.78808594 -12.84106445 4.22363281 C-12.18106445 3.65773438 -11.52106445 3.09183594 -10.84106445 2.50878906 C-7.39991512 0.19004586 -4.0758731 0.03311197 0 0 Z M-3.84106445 19.16113281 C-4.28040401 21.91699003 -4.41032383 23.99285504 -4.27856445 26.72363281 C-4.27276367 27.40876953 -4.26696289 28.09390625 -4.26098633 28.79980469 C-4.23744778 32.93732081 -4.23744778 32.93732081 -1.84106445 36.16113281 C0.03443912 36.4725216 0.03443912 36.4725216 2.19384766 36.43579102 C3.0248851 36.44532303 3.85592255 36.45485504 4.71214294 36.4646759 C6.06059044 36.46330879 6.06059044 36.46330879 7.4362793 36.46191406 C8.35856827 36.46619919 9.28085724 36.47048431 10.23109436 36.47489929 C12.1838397 36.4806484 14.13660647 36.4811386 16.08935547 36.47680664 C19.0810189 36.47364908 22.07169154 36.49709011 25.06323242 36.52246094 C26.95841346 36.52473407 28.85359717 36.52543736 30.7487793 36.52441406 C31.64572006 36.53362381 32.54266083 36.54283356 33.46678162 36.55232239 C34.71806602 36.5429792 34.71806602 36.5429792 35.99462891 36.53344727 C36.72806015 36.53407669 37.46149139 36.53470612 38.21714783 36.53535461 C40.73740169 36.04965068 41.6231156 35.18813298 43.15893555 33.16113281 C43.59846569 30.0645729 43.59846569 30.0645729 43.47143555 26.66113281 C43.46563477 24.94410156 43.46563477 24.94410156 43.4597168 23.19238281 C43.38121445 19.98556737 43.38121445 19.98556737 41.15893555 17.16113281 C37.39946105 15.90797465 33.86612277 15.97940642 29.94799805 15.95800781 C29.1428476 15.95230774 28.33769714 15.94660767 27.50814819 15.94073486 C25.80516877 15.93129345 24.10217115 15.92475429 22.39916992 15.92089844 C19.80053682 15.9111948 17.20269552 15.88016498 14.60424805 15.84863281 C12.94800273 15.84210215 11.29175178 15.83685192 9.63549805 15.83300781 C8.8613858 15.82066101 8.08727356 15.80831421 7.28970337 15.79559326 C2.76945062 15.81415846 -0.33607059 16.19215164 -3.84106445 19.16113281 Z " fill="#4a90e2" transform="translate(257.841064453125,347.8388671875)"/>
<path d="M0 0 C1.43718132 -0.01441132 1.43718132 -0.01441132 2.90339661 -0.02911377 C4.4472126 -0.03548859 4.4472126 -0.03548859 6.0222168 -0.04199219 C7.08756149 -0.04769226 8.15290619 -0.05339233 9.25053406 -0.05926514 C11.50408945 -0.06870662 13.7576586 -0.07524573 16.01123047 -0.07910156 C19.44808197 -0.08880128 22.88433386 -0.11983095 26.32104492 -0.15136719 C28.51309867 -0.15789822 30.70515669 -0.1631483 32.8972168 -0.16699219 C34.43192375 -0.18551239 34.43192375 -0.18551239 35.99763489 -0.20440674 C42.80276397 -0.18329952 47.88363432 0.47049374 53.3034668 4.92285156 C60.96447866 13.76800109 60.94212071 22.78047339 60.15893555 34.16113281 C58.83977345 41.43713624 55.688984 46.66426927 49.59643555 50.97363281 C45.86690079 52.79058564 42.6463327 53.28710977 38.51733398 53.32226562 C37.14505646 53.33667694 37.14505646 53.33667694 35.74505615 53.35137939 C34.7627301 53.35562927 33.78040405 53.35987915 32.76831055 53.36425781 C31.24043915 53.37280792 31.24043915 53.37280792 29.68170166 53.38153076 C27.52649979 53.39097165 25.37128355 53.39751112 23.21606445 53.40136719 C19.93504323 53.41105572 16.65465313 53.44208121 13.3737793 53.47363281 C11.27612675 53.48016506 9.17846974 53.48541466 7.08081055 53.48925781 C6.10658142 53.50160461 5.13235229 53.51395142 4.12860107 53.52667236 C-2.68671084 53.50461921 -8.65077512 52.81785459 -14.08325195 48.29394531 C-14.62208008 47.63136719 -15.1609082 46.96878906 -15.71606445 46.28613281 C-16.27036133 45.62871094 -16.8246582 44.97128906 -17.39575195 44.29394531 C-21.21662406 38.65557729 -21.20681827 33.47351995 -21.21606445 26.84863281 C-21.24055664 25.93662109 -21.26504883 25.02460938 -21.2902832 24.08496094 C-21.32206873 16.6948262 -19.74928116 11.47263738 -14.84106445 5.88378906 C-14.18106445 5.3359375 -13.52106445 4.78808594 -12.84106445 4.22363281 C-12.18106445 3.65773438 -11.52106445 3.09183594 -10.84106445 2.50878906 C-7.39991512 0.19004586 -4.0758731 0.03311197 0 0 Z M-3.84106445 19.16113281 C-4.28040401 21.91699003 -4.41032383 23.99285504 -4.27856445 26.72363281 C-4.27276367 27.40876953 -4.26696289 28.09390625 -4.26098633 28.79980469 C-4.23744778 32.93732081 -4.23744778 32.93732081 -1.84106445 36.16113281 C0.03443912 36.4725216 0.03443912 36.4725216 2.19384766 36.43579102 C3.0248851 36.44532303 3.85592255 36.45485504 4.71214294 36.4646759 C6.06059044 36.46330879 6.06059044 36.46330879 7.4362793 36.46191406 C8.35856827 36.46619919 9.28085724 36.47048431 10.23109436 36.47489929 C12.1838397 36.4806484 14.13660647 36.4811386 16.08935547 36.47680664 C19.0810189 36.47364908 22.07169154 36.49709011 25.06323242 36.52246094 C26.95841346 36.52473407 28.85359717 36.52543736 30.7487793 36.52441406 C31.64572006 36.53362381 32.54266083 36.54283356 33.46678162 36.55232239 C34.71806602 36.5429792 34.71806602 36.5429792 35.99462891 36.53344727 C36.72806015 36.53407669 37.46149139 36.53470612 38.21714783 36.53535461 C40.73740169 36.04965068 41.6231156 35.18813298 43.15893555 33.16113281 C43.59846569 30.0645729 43.59846569 30.0645729 43.47143555 26.66113281 C43.46563477 24.94410156 43.46563477 24.94410156 43.4597168 23.19238281 C43.38121445 19.98556737 43.38121445 19.98556737 41.15893555 17.16113281 C37.39946105 15.90797465 33.86612277 15.97940642 29.94799805 15.95800781 C29.1428476 15.95230774 28.33769714 15.94660767 27.50814819 15.94073486 C25.80516877 15.93129345 24.10217115 15.92475429 22.39916992 15.92089844 C19.80053682 15.9111948 17.20269552 15.88016498 14.60424805 15.84863281 C12.94800273 15.84210215 11.29175178 15.83685192 9.63549805 15.83300781 C8.8613858 15.82066101 8.08727356 15.80831421 7.28970337 15.79559326 C2.76945062 15.81415846 -0.33607059 16.19215164 -3.84106445 19.16113281 Z " fill="#4a90e2" transform="translate(84.841064453125,347.8388671875)"/>
<path d="M0 0 C1.11306519 -0.00004028 2.22613037 -0.00008057 3.3729248 -0.00012207 C5.72312068 0.00523258 8.07331612 0.02281267 10.42333984 0.05175781 C14.01846097 0.09360115 17.61170773 0.09282604 21.20703125 0.0859375 C23.49220051 0.09643058 25.77736011 0.10936932 28.0625 0.125 C29.13657104 0.12520142 30.21064209 0.12540283 31.31726074 0.12561035 C40.69150518 0.2740976 40.69150518 0.2740976 44.53125 3.59375 C45.74201369 6.01527738 45.60892714 7.34798087 45.40625 10.03125 C45.36242187 10.81371094 45.31859375 11.59617187 45.2734375 12.40234375 C44.53125 14.59375 44.53125 14.59375 42.68798828 16.20581055 C37.93818114 18.29418283 33.41514785 18.02181748 28.28125 17.9921875 C27.19038086 17.99505768 26.09951172 17.99792786 24.97558594 18.00088501 C22.67252075 18.00292367 20.36943817 17.99740773 18.06640625 17.98486328 C14.54387648 17.96880755 11.02249414 17.98471948 7.5 18.00390625 C5.26041414 18.00192378 3.02082899 17.99808004 0.78125 17.9921875 C-0.27094727 17.99826019 -1.32314453 18.00433289 -2.40722656 18.0105896 C-11.60086637 17.92228326 -11.60086637 17.92228326 -15.46875 14.59375 C-17.03810594 11.45503812 -16.82076103 9.05519178 -16.46875 5.59375 C-12.19598632 -0.77613229 -6.98542507 -0.10662971 0 0 Z " fill="#4a90e2" transform="translate(176.46875,365.40625)"/>
</svg>